<?xml version="1.0" encoding="UTF-8" standalone="no"?>
<svg
   xmlns:dc="http://purl.org/dc/elements/1.1/"
   xmlns:cc="http://creativecommons.org/ns#"
   xmlns:rdf="http://www.w3.org/1999/02/22-rdf-syntax-ns#"
   xmlns:svg="http://www.w3.org/2000/svg"
   xmlns="http://www.w3.org/2000/svg"
   xmlns:sodipodi="http://sodipodi.sourceforge.net/DTD/sodipodi-0.dtd"
   xmlns:inkscape="http://www.inkscape.org/namespaces/inkscape"
   version="1.1"
   viewBox="0 0 27 23.000041"
   xml:space="preserve"
   id="svg13"
   sodipodi:docname="love.svg"
   width="27"
   height="23.00004"
   inkscape:version="0.92.4 (5da689c313, 2019-01-14)"><metadata
     id="metadata19"><rdf:RDF><cc:Work
         rdf:about=""><dc:format>image/svg+xml</dc:format><dc:type
           rdf:resource="http://purl.org/dc/dcmitype/StillImage" /><dc:title></dc:title></cc:Work></rdf:RDF></metadata><defs
     id="defs17" /><sodipodi:namedview
     pagecolor="#ffffff"
     bordercolor="#666666"
     borderopacity="1"
     objecttolerance="10"
     gridtolerance="10"
     guidetolerance="10"
     inkscape:pageopacity="0"
     inkscape:pageshadow="2"
     inkscape:window-width="1920"
     inkscape:window-height="1017"
     id="namedview15"
     showgrid="false"
     inkscape:zoom="4.9166628"
     inkscape:cx="0.50845591"
     inkscape:cy="24.000019"
     inkscape:window-x="-8"
     inkscape:window-y="-8"
     inkscape:window-maximized="1"
     inkscape:current-layer="svg13" /><g
     id="Icons"
     transform="translate(-10.37289,-12.186428)"><g
       id="g10"><path
         d="m 23.99294,15.87192 1.01585,-0.88887 c 1.39679,-1.22748 3.11808,-1.83417 4.85349,-1.83417 2.03169,0 4.03517,0.83243 5.48839,2.45496 2.59605,2.93467 2.41263,7.35077 -0.33862,10.0597 l -9.82842,8.73568 c -0.67944,0.60256 -1.70193,0.60256 -2.38137,0 l -9.81431,-8.73568 c -2.75125,-2.69481 -2.93467,-7.12503 -0.33862,-10.0597 1.45322,-1.62253 3.4567,-2.45496 5.48839,-2.45496 1.7213,0 3.4567,0.60669 4.85349,1.83417 l 1.00173,0.88887"
         style="fill:#4aa0ec"
         id="path2"
         inkscape:connector-curvature="0" /><path
         d="m 23.99294,15.87192 1.01585,-0.88887 c 1.39679,-1.22748 3.11808,-1.83417 4.85349,-1.83417 2.03169,0 4.03517,0.83243 5.48839,2.45496 2.59605,2.93467 2.41263,7.35077 -0.33862,10.0597 l -9.82842,8.73568 c -0.67944,0.60256 -1.70193,0.60256 -2.38137,0 l -9.81431,-8.73568 c -2.75125,-2.69481 -2.93467,-7.12503 -0.33862,-10.0597 1.45322,-1.62253 3.4567,-2.45496 5.48839,-2.45496 1.7213,0 3.4567,0.60669 4.85349,1.83417 l 1.00173,0.88887"
         style="fill:none;stroke:#303030;stroke-width:0.69999999;stroke-linecap:round;stroke-linejoin:round;stroke-miterlimit:10"
         id="path4"
         inkscape:connector-curvature="0" /><path
         d="m 13.97946,19.68624 c 0.10696,-0.4492 0.2748,-0.88792 0.50438,-1.30326 0.18132,-0.32803 0.40115,-0.64148 0.6599,-0.93398 1.0309,-1.15101 2.45214,-1.74152 3.8934,-1.74152"
         style="fill:none;stroke:#303030;stroke-width:0.69999999;stroke-linecap:round;stroke-linejoin:round;stroke-miterlimit:10"
         id="path6"
         inkscape:connector-curvature="0" /><path
         d="M 14.55714,23.5316 C 14.2648,23.03754 14.06073,22.50298 13.9465,21.95189"
         style="fill:none;stroke:#303030;stroke-width:0.69999999;stroke-linecap:round;stroke-linejoin:round;stroke-miterlimit:10"
         id="path8"
         inkscape:connector-curvature="0" /></g></g></svg>