<?xml version="1.0" encoding="UTF-8"?>
<svg xmlns="http://www.w3.org/2000/svg" xmlns:xlink="http://www.w3.org/1999/xlink" viewBox="0 0 64 64" version="1.1" width="64px" height="64px">
<g id="surface1">
<path style=" fill:#C2CDE7;" d="M 45 42.21875 L 45 39.78125 C 45.015625 39.308594 44.695313 38.894531 44.238281 38.78125 L 39.148438 37.511719 C 38.796875 37.417969 38.519531 37.144531 38.429688 36.789063 C 38.074219 35.464844 37.550781 34.191406 36.871094 33 C 36.691406 32.691406 36.691406 32.308594 36.871094 32 L 39.570313 27.488281 C 39.804688 27.097656 39.742188 26.59375 39.421875 26.269531 L 37.699219 24.550781 C 37.375 24.226563 36.871094 24.164063 36.480469 24.398438 L 32 27.128906 C 31.691406 27.308594 31.308594 27.308594 31 27.128906 C 29.8125 26.445313 28.542969 25.917969 27.21875 25.558594 C 26.867188 25.46875 26.589844 25.195313 26.5 24.839844 L 25.230469 19.75 C 25.117188 19.292969 24.699219 18.976563 24.230469 18.988281 L 21.78125 18.988281 C 21.308594 18.976563 20.894531 19.292969 20.78125 19.75 L 19.511719 24.839844 C 19.417969 25.195313 19.144531 25.46875 18.789063 25.558594 C 17.464844 25.917969 16.191406 26.445313 15 27.128906 C 14.691406 27.308594 14.308594 27.308594 14 27.128906 L 9.488281 24.429688 C 9.097656 24.195313 8.59375 24.257813 8.269531 24.578125 L 6.578125 26.308594 C 6.257813 26.632813 6.195313 27.136719 6.429688 27.53125 L 9.128906 32 C 9.308594 32.308594 9.308594 32.691406 9.128906 33 C 8.445313 34.1875 7.917969 35.457031 7.558594 36.78125 C 7.46875 37.132813 7.195313 37.410156 6.839844 37.5 L 1.761719 38.808594 C 1.304688 38.921875 0.984375 39.339844 1 39.808594 L 1 42.25 C 0.984375 42.71875 1.304688 43.136719 1.761719 43.25 L 6.851563 44.519531 C 7.203125 44.609375 7.480469 44.886719 7.570313 45.238281 C 7.925781 46.554688 8.449219 47.820313 9.128906 49 C 9.308594 49.308594 9.308594 49.691406 9.128906 50 L 6.429688 54.511719 C 6.195313 54.902344 6.257813 55.40625 6.578125 55.730469 L 8.300781 57.449219 C 8.625 57.773438 9.128906 57.835938 9.519531 57.601563 L 14 54.871094 C 14.308594 54.691406 14.691406 54.691406 15 54.871094 C 16.1875 55.554688 17.457031 56.082031 18.78125 56.441406 C 19.132813 56.53125 19.410156 56.804688 19.5 57.160156 L 20.769531 62.25 C 20.882813 62.707031 21.300781 63.023438 21.769531 63.011719 L 24.210938 63.011719 C 24.679688 63.023438 25.097656 62.707031 25.210938 62.25 L 26.480469 57.160156 C 26.570313 56.804688 26.847656 56.53125 27.199219 56.441406 C 28.53125 56.082031 29.808594 55.554688 31 54.871094 C 31.308594 54.691406 31.691406 54.691406 32 54.871094 L 36.511719 57.570313 C 36.902344 57.804688 37.40625 57.742188 37.730469 57.421875 L 39.449219 55.699219 C 39.773438 55.375 39.835938 54.871094 39.601563 54.480469 L 36.871094 50 C 36.691406 49.691406 36.691406 49.308594 36.871094 49 C 37.554688 47.8125 38.082031 46.542969 38.441406 45.21875 C 38.53125 44.867188 38.804688 44.589844 39.160156 44.5 L 44.25 43.230469 C 44.707031 43.113281 45.019531 42.691406 45 42.21875 Z "/>
<path style=" fill:#ACB7D0;" d="M 34 41 C 34 47.074219 29.074219 52 23 52 C 16.925781 52 12 47.074219 12 41 C 12 34.925781 16.925781 30 23 30 C 29.074219 30 34 34.925781 34 41 Z "/>
<path style=" fill:#C2CDE7;" d="M 62.359375 10.679688 L 61.609375 8.828125 L 57.429688 9.621094 C 56.683594 8.445313 55.699219 7.441406 54.539063 6.671875 L 55.398438 2.5 L 53.558594 1.71875 L 51.160156 5.230469 C 49.789063 4.925781 48.375 4.917969 47 5.199219 L 44.679688 1.640625 L 42.828125 2.390625 L 43.621094 6.570313 C 42.445313 7.316406 41.441406 8.300781 40.671875 9.460938 L 36.5 8.609375 L 35.71875 10.449219 L 39.230469 12.851563 C 38.941406 14.210938 38.941406 15.617188 39.230469 16.980469 L 35.671875 19.320313 L 36.421875 21.171875 L 40.601563 20.378906 C 41.347656 21.554688 42.332031 22.558594 43.488281 23.328125 L 42.628906 27.5 L 44.46875 28.28125 L 46.871094 24.769531 C 48.230469 25.058594 49.636719 25.058594 51 24.769531 L 53.339844 28.328125 L 55.191406 27.578125 L 54.398438 23.398438 C 55.574219 22.652344 56.578125 21.667969 57.351563 20.511719 L 61.519531 21.371094 L 62.300781 19.53125 L 58.789063 17.128906 C 59.078125 15.769531 59.078125 14.363281 58.789063 13 Z "/>
<path style=" fill:#F9DD8F;" d="M 54 15 C 54 17.761719 51.761719 20 49 20 C 46.238281 20 44 17.761719 44 15 C 44 12.238281 46.238281 10 49 10 C 51.761719 10 54 12.238281 54 15 Z "/>
<path style=" fill:#F9DD8F;" d="M 29 41 C 29 44.3125 26.3125 47 23 47 C 19.6875 47 17 44.3125 17 41 C 17 37.6875 19.6875 35 23 35 C 26.3125 35 29 37.6875 29 41 Z "/>
<path style=" fill:#8D6C9F;" d="M 30.800781 31.761719 C 30.367188 31.417969 29.738281 31.492188 29.394531 31.925781 C 29.050781 32.359375 29.125 32.988281 29.558594 33.328125 C 30.082031 33.742188 30.5625 34.199219 31 34.699219 C 31.371094 35.085938 31.980469 35.113281 32.382813 34.757813 C 32.785156 34.40625 32.835938 33.796875 32.5 33.378906 C 31.984375 32.789063 31.414063 32.246094 30.800781 31.761719 Z "/>
<path style=" fill:#8D6C9F;" d="M 19 31.628906 C 19.109375 31.628906 19.214844 31.613281 19.320313 31.578125 C 21.5625 30.832031 23.988281 30.832031 26.230469 31.578125 C 26.753906 31.753906 27.320313 31.46875 27.496094 30.945313 C 27.667969 30.421875 27.382813 29.855469 26.859375 29.679688 C 24.203125 28.800781 21.335938 28.800781 18.679688 29.679688 C 18.210938 29.832031 17.925781 30.304688 18.003906 30.792969 C 18.085938 31.277344 18.507813 31.632813 19 31.628906 Z "/>
<path style=" fill:#8D6C9F;" d="M 15.070313 47.199219 L 13.78125 48.488281 C 13.390625 48.882813 13.394531 49.515625 13.785156 49.90625 C 14.175781 50.292969 14.8125 50.292969 15.199219 49.898438 L 16.488281 48.609375 C 16.828125 48.214844 16.808594 47.621094 16.4375 47.253906 C 16.066406 46.882813 15.476563 46.859375 15.078125 47.199219 Z "/>
<path style=" fill:#8D6C9F;" d="M 14.558594 44.351563 C 14.34375 43.84375 13.757813 43.605469 13.25 43.820313 L 11.578125 44.53125 C 11.238281 44.660156 10.992188 44.96875 10.945313 45.328125 C 10.894531 45.691406 11.046875 46.054688 11.34375 46.269531 C 11.636719 46.488281 12.027344 46.527344 12.359375 46.371094 L 14 45.660156 C 14.25 45.5625 14.449219 45.367188 14.554688 45.121094 C 14.660156 44.875 14.660156 44.597656 14.558594 44.351563 Z "/>
<path style=" fill:#8D6C9F;" d="M 11 42 L 12.820313 42 C 13.371094 42 13.820313 41.550781 13.820313 41 C 13.820313 40.449219 13.371094 40 12.820313 40 L 11 40 C 10.449219 40 10 40.449219 10 41 C 10 41.550781 10.449219 42 11 42 Z "/>
<path style=" fill:#8D6C9F;" d="M 11.449219 37.519531 L 13.148438 38.171875 C 13.667969 38.367188 14.246094 38.113281 14.445313 37.59375 C 14.644531 37.078125 14.386719 36.5 13.871094 36.300781 L 12.171875 35.648438 C 11.652344 35.453125 11.074219 35.707031 10.875 36.226563 C 10.675781 36.742188 10.933594 37.320313 11.449219 37.519531 Z "/>
<path style=" fill:#8D6C9F;" d="M 23 34 C 19.132813 34 16 37.132813 16 41 C 16 44.867188 19.132813 48 23 48 C 26.867188 48 30 44.867188 30 41 C 30 37.132813 26.867188 34 23 34 Z M 23 46 C 20.238281 46 18 43.761719 18 41 C 18 38.238281 20.238281 36 23 36 C 25.761719 36 28 38.238281 28 41 C 28 43.761719 25.761719 46 23 46 Z "/>
<path style=" fill:#8D6C9F;" d="M 25 41 C 25 42.105469 24.105469 43 23 43 C 21.894531 43 21 42.105469 21 41 C 21 39.894531 21.894531 39 23 39 C 24.105469 39 25 39.894531 25 41 Z "/>
<path style=" fill:#8D6C9F;" d="M 49 9 C 45.6875 9 43 11.6875 43 15 C 43 18.3125 45.6875 21 49 21 C 52.3125 21 55 18.3125 55 15 C 55 11.6875 52.3125 9 49 9 Z M 49 19.238281 C 46.660156 19.238281 44.761719 17.339844 44.761719 15 C 44.761719 12.660156 46.660156 10.761719 49 10.761719 C 51.339844 10.761719 53.238281 12.660156 53.238281 15 C 53.234375 17.339844 51.339844 19.234375 49 19.238281 Z "/>
<path style=" fill:#8D6C9F;" d="M 51 15 C 51 16.105469 50.105469 17 49 17 C 47.894531 17 47 16.105469 47 15 C 47 13.894531 47.894531 13 49 13 C 50.105469 13 51 13.894531 51 15 Z "/>
<path style=" fill:#8D6C9F;" d="M 44.488281 37.839844 L 39.398438 36.558594 C 39.019531 35.160156 38.453125 33.8125 37.71875 32.558594 L 40.429688 28 C 40.902344 27.214844 40.777344 26.207031 40.128906 25.558594 L 38.398438 23.871094 C 37.75 23.222656 36.746094 23.097656 35.960938 23.570313 L 31.460938 26.261719 C 30.207031 25.535156 28.859375 24.976563 27.460938 24.601563 L 26.191406 19.511719 C 25.960938 18.609375 25.148438 17.984375 24.21875 18 L 21.78125 18 C 20.863281 18 20.066406 18.621094 19.839844 19.511719 L 18.558594 24.601563 C 17.160156 24.980469 15.8125 25.546875 14.558594 26.28125 L 10 23.570313 C 9.214844 23.097656 8.207031 23.222656 7.558594 23.871094 L 5.871094 25.601563 C 5.242188 26.242188 5.121094 27.222656 5.570313 28 L 8.261719 32.5 C 7.535156 33.753906 6.976563 35.097656 6.601563 36.5 L 1.511719 37.839844 C 0.621094 38.066406 0 38.863281 0 39.78125 L 0 42.21875 C 0 43.136719 0.621094 43.933594 1.511719 44.160156 L 6.601563 45.441406 C 6.980469 46.839844 7.546875 48.1875 8.28125 49.441406 L 5.570313 54 C 5.097656 54.785156 5.222656 55.792969 5.871094 56.441406 L 7.601563 58.128906 C 8.25 58.777344 9.253906 58.902344 10.039063 58.429688 L 14.539063 55.738281 C 15.792969 56.464844 17.140625 57.023438 18.539063 57.398438 L 19.808594 62.488281 C 20.039063 63.390625 20.851563 64.015625 21.78125 64 L 24.21875 64 C 25.136719 64 25.933594 63.378906 26.160156 62.488281 L 27.441406 57.398438 C 28.839844 57.019531 30.1875 56.453125 31.441406 55.71875 L 36 58.429688 C 36.785156 58.902344 37.792969 58.777344 38.441406 58.128906 L 40.160156 56.410156 C 40.808594 55.761719 40.929688 54.757813 40.460938 53.96875 L 37.769531 49.46875 C 38.496094 48.214844 39.054688 46.871094 39.429688 45.46875 L 44.519531 44.199219 C 45.410156 43.960938 46.023438 43.140625 46 42.21875 L 46 39.78125 C 46 38.863281 45.378906 38.066406 44.488281 37.839844 Z M 44 42.21875 L 38.910156 43.488281 C 38.207031 43.667969 37.65625 44.21875 37.46875 44.921875 C 37.132813 46.160156 36.640625 47.347656 36 48.460938 C 35.644531 49.078125 35.644531 49.839844 36 50.460938 L 38.710938 55 L 37 56.710938 L 32.480469 54 C 31.859375 53.644531 31.097656 53.644531 30.480469 54 C 29.367188 54.640625 28.179688 55.132813 26.941406 55.46875 C 26.242188 55.65625 25.699219 56.207031 25.519531 56.910156 L 24.21875 62 L 21.78125 62 L 20.511719 56.910156 C 20.332031 56.207031 19.789063 55.65625 19.089844 55.46875 C 17.847656 55.136719 16.65625 54.640625 15.539063 54 C 15.234375 53.824219 14.890625 53.730469 14.539063 53.730469 C 14.1875 53.734375 13.84375 53.832031 13.539063 54.011719 L 9 56.710938 L 7.289063 55 L 9.988281 50.5 C 10.347656 49.882813 10.347656 49.117188 9.988281 48.5 C 9.351563 47.386719 8.855469 46.199219 8.519531 44.960938 C 8.335938 44.257813 7.785156 43.710938 7.078125 43.53125 L 2 42.21875 L 2 39.78125 L 7.089844 38.511719 C 7.792969 38.332031 8.34375 37.789063 8.53125 37.089844 C 8.863281 35.847656 9.359375 34.65625 10 33.539063 C 10.355469 32.921875 10.355469 32.160156 10 31.539063 L 7.289063 27 L 9 25.289063 L 13.5 27.988281 C 14.117188 28.347656 14.882813 28.347656 15.5 27.988281 C 16.613281 27.351563 17.800781 26.855469 19.039063 26.519531 C 19.742188 26.335938 20.289063 25.785156 20.46875 25.078125 L 21.78125 20 L 24.21875 20 L 25.488281 25.089844 C 25.667969 25.792969 26.21875 26.34375 26.921875 26.53125 C 28.160156 26.867188 29.347656 27.359375 30.460938 28 C 31.078125 28.355469 31.839844 28.355469 32.460938 28 L 37 25.289063 L 38.710938 27 L 36 31.519531 C 35.644531 32.140625 35.644531 32.902344 36 33.519531 C 36.640625 34.632813 37.132813 35.820313 37.46875 37.058594 C 37.65625 37.757813 38.207031 38.300781 38.910156 38.480469 L 44 39.78125 Z "/>
<path style=" fill:#8D6C9F;" d="M 62.839844 18.71875 L 59.839844 16.71875 C 60 15.660156 60 14.582031 59.839844 13.519531 L 62.839844 11.519531 C 63.238281 11.257813 63.398438 10.753906 63.21875 10.308594 L 62.46875 8.460938 C 62.292969 8.019531 61.828125 7.761719 61.359375 7.851563 L 57.820313 8.519531 C 57.191406 7.652344 56.433594 6.886719 55.578125 6.238281 L 56.308594 2.710938 C 56.40625 2.242188 56.15625 1.777344 55.71875 1.589844 L 53.941406 0.800781 C 53.5 0.613281 52.988281 0.761719 52.71875 1.160156 L 50.71875 4.160156 C 49.660156 4 48.582031 4 47.519531 4.160156 L 45.519531 1.160156 C 45.277344 0.738281 44.765625 0.554688 44.308594 0.71875 L 42.460938 1.46875 C 42.019531 1.648438 41.761719 2.113281 41.851563 2.578125 L 42.519531 6.121094 C 41.652344 6.75 40.886719 7.503906 40.238281 8.359375 L 36.710938 7.628906 C 36.242188 7.535156 35.777344 7.78125 35.589844 8.21875 L 34.808594 10.058594 C 34.621094 10.5 34.773438 11.011719 35.171875 11.28125 L 38.171875 13.28125 C 38.011719 14.339844 38.011719 15.417969 38.171875 16.480469 L 35.171875 18.480469 C 34.769531 18.742188 34.613281 19.246094 34.789063 19.691406 L 35.539063 21.539063 C 35.71875 21.980469 36.183594 22.238281 36.648438 22.148438 L 40.191406 21.480469 C 40.820313 22.347656 41.574219 23.113281 42.429688 23.761719 L 41.699219 27.289063 C 41.605469 27.757813 41.851563 28.222656 42.289063 28.410156 L 44.128906 29.191406 C 44.570313 29.378906 45.082031 29.226563 45.351563 28.828125 L 47.351563 25.828125 C 48.410156 25.988281 49.488281 25.988281 50.550781 25.828125 L 52.550781 28.828125 C 52.8125 29.230469 53.316406 29.386719 53.761719 29.210938 L 55.609375 28.460938 C 56.050781 28.28125 56.308594 27.816406 56.21875 27.351563 L 55.550781 23.808594 C 56.417969 23.179688 57.183594 22.425781 57.828125 21.570313 L 61.359375 22.300781 C 61.824219 22.394531 62.292969 22.148438 62.480469 21.710938 L 63.261719 19.871094 C 63.398438 19.4375 63.226563 18.960938 62.839844 18.71875 Z M 60.898438 20.25 L 57.539063 19.550781 C 57.152344 19.484375 56.757813 19.652344 56.539063 19.980469 C 55.847656 21.023438 54.945313 21.910156 53.890625 22.578125 C 53.558594 22.796875 53.386719 23.1875 53.449219 23.578125 L 54 27 L 53.671875 27.128906 L 51.78125 24.261719 C 51.609375 23.992188 51.320313 23.820313 51 23.800781 L 50.800781 23.800781 C 49.578125 24.0625 48.3125 24.0625 47.089844 23.800781 C 46.707031 23.730469 46.3125 23.890625 46.089844 24.210938 L 44.089844 27 L 43.761719 26.859375 L 44.460938 23.5 C 44.527344 23.109375 44.359375 22.71875 44.03125 22.5 C 42.988281 21.808594 42.101563 20.90625 41.429688 19.851563 C 41.214844 19.519531 40.820313 19.34375 40.429688 19.410156 L 37 20 L 36.871094 19.671875 L 39.738281 17.78125 C 40.066406 17.5625 40.238281 17.167969 40.171875 16.78125 C 39.90625 15.554688 39.90625 14.285156 40.171875 13.058594 C 40.242188 12.675781 40.082031 12.285156 39.761719 12.058594 L 37 10.089844 L 37.140625 9.761719 L 40.5 10.460938 C 40.890625 10.527344 41.28125 10.359375 41.5 10.03125 C 42.191406 8.988281 43.09375 8.101563 44.148438 7.429688 C 44.480469 7.214844 44.65625 6.820313 44.589844 6.429688 L 44 3 L 44.328125 2.871094 L 46.21875 5.738281 C 46.4375 6.066406 46.832031 6.238281 47.21875 6.171875 C 48.445313 5.910156 49.714844 5.910156 50.941406 6.171875 C 51.324219 6.242188 51.714844 6.082031 51.941406 5.761719 L 53.910156 3 L 54.238281 3.140625 L 53.539063 6.5 C 53.472656 6.890625 53.640625 7.28125 53.96875 7.5 C 55.011719 8.191406 55.898438 9.09375 56.570313 10.148438 C 56.785156 10.480469 57.179688 10.65625 57.570313 10.589844 L 61 10 L 61.128906 10.328125 L 58.261719 12.21875 C 57.933594 12.4375 57.761719 12.832031 57.828125 13.21875 C 58.09375 14.445313 58.09375 15.714844 57.828125 16.941406 C 57.757813 17.324219 57.917969 17.714844 58.238281 17.941406 L 61 19.910156 Z "/>
</g>
</svg>
