<?xml version="1.0" ?><svg style="enable-background:new 0 0 512 512;" version="1.1" viewBox="0 0 512 512" xml:space="preserve" xmlns="http://www.w3.org/2000/svg" xmlns:xlink="http://www.w3.org/1999/xlink"><style type="text/css">
	.st0{fill:#1E1E1E;}
	.st1{fill:#464646;stroke:#21759B;stroke-width:2;stroke-miterlimit:10;}
	.st2{fill:#FFFFFF;}
</style><g id="Edges"/><g id="Background_Bottom"><g><path class="st0" d="M492.3,443.1c0,34.2-27.7,61.9-61.9,61.9H80.7c-34.2,0-61.9-27.7-61.9-61.9V93.4c0-34.2,27.7-61.9,61.9-61.9    h349.7c34.2,0,61.9,27.7,61.9,61.9V443.1z"/></g></g><g id="Background"><path class="st1" d="M492.3,418.4c0,34.2-27.7,61.9-61.9,61.9H80.7c-34.2,0-61.9-27.7-61.9-61.9V68.6c0-34.2,27.7-61.9,61.9-61.9   h349.7c34.2,0,61.9,27.7,61.9,61.9V418.4z"/></g><g id="Symbol"><g><path class="st2" d="M225.3,124.1c20.1,0,40.3,0,60.4,0c9.5,1.3,19,2.7,28.5,3.9c33,4.2,54.4,22,63.7,54c1,3.6,2,7.3,2.4,10.9    c3.2,28.6,1.2,56.9-2.3,85.4c-1.8,14.7-9.2,25.1-20.7,33.5c-6.1,4.5-12.6,8.1-19.5,11.1c-20.5,8.8-42.3,9.6-64,10.9    c-21.8,1.3-43.5-1.5-64.9-5.7c-5.9-1.1-6.8,0.5-6.1,6c2.1,16.5,11.9,26.8,29.8,29.7c18.1,2.9,36.4,2.8,54.5-0.5    c18.1-3.3,14.7-6.9,16.9,13.7c0.5,4.7-1.6,7.5-6,8.9c-2.9,0.9-5.7,2.1-8.7,2.9c-32.2,9-64.4,7.1-96.4-1.3    c-22.5-5.9-38.3-19.9-48.2-40.8c-5.7-11.9-9.1-24.5-11.4-37.5c-5.9-33-3.9-66.3-4.3-99.5c-0.1-5.9,0.5-11.7,1.6-17.5    c6.2-35.1,25.4-55.3,59.9-63C202.1,126.7,213.8,126,225.3,124.1z M341.7,236.2c0-10.2-7.5-17.6-17.8-17.6    c-10.1,0-17.9,7.6-18,17.6c-0.1,9.8,7.8,18,17.6,18.1C333.9,254.5,341.7,246.6,341.7,236.2z M169.4,235.8    c-0.2,10.2,7.1,18.1,17,18.5c10.1,0.4,18.6-7.7,18.7-17.7c0.1-10-7.5-17.8-17.6-18C177.3,218.4,169.7,225.6,169.4,235.8z     M255.8,254.4c9.7-0.1,17.9-8.5,17.9-18.1c-0.1-10.3-8.2-17.9-18.7-17.7c-10,0.2-17.8,8.3-17.5,18.2    C237.7,246.4,246.1,254.5,255.8,254.4z"/></g></g></svg>