<?xml version="1.0" ?><!DOCTYPE svg  PUBLIC '-//W3C//DTD SVG 1.1//EN'  'http://www.w3.org/Graphics/SVG/1.1/DTD/svg11.dtd'><svg enable-background="new 0 0 512 512" height="512px" id="Layer_1" version="1.1" viewBox="0 0 512 512" width="512px" xml:space="preserve" xmlns="http://www.w3.org/2000/svg" xmlns:xlink="http://www.w3.org/1999/xlink"><path d="M512,432c0,44.182-35.816,80-80,80H80c-44.183,0-80-35.818-80-80V80C0,35.817,35.818,0,80,0h352  c44.184,0,80,35.817,80,80V432z" fill="#0274B3"/><polygon fill="#FFFFFF" points="-274.02,877.279 -274.013,877.279 -274.02,877.272 "/><path d="M512,432v-82.242L385.428,223.185l-47.042,47.042l-64.333-64.333l-9.645,9.645l-96.479-96.479  l-51.435,51.435l45.916,45.916l-31.836,31.836l25.093,25.092v87.182l-3.505-3.504l-42.353,42.352L222.441,512H432  C476.184,512,512,476.182,512,432z" fill="#0A5272"/><g><rect fill="#FFFFFF" height="193.476" width="64.312" x="109.794" y="205.896"/><path d="M141.955,179.473h-0.429c-21.569,0-35.525-14.864-35.525-33.421c0-18.979,14.385-33.422,36.375-33.422   c22.006,0,35.533,14.444,35.963,33.422C178.338,164.608,164.373,179.473,141.955,179.473z" fill="#FFFFFF"/><path d="M405.992,399.371h-64.305v-103.53c0-25.994-9.303-43.744-32.572-43.744   c-17.767,0-28.341,11.971-33.001,23.529c-1.699,4.122-2.111,9.894-2.111,15.681v108.048h-64.304c0,0,0.841-175.329,0-193.467   h64.304v27.391c8.547-13.183,23.823-31.95,57.96-31.95c42.306,0,74.037,27.66,74.037,87.084v110.959H405.992z" fill="#FFFFFF"/></g></svg>