<?xml version="1.0" ?><svg style="enable-background:new 0 0 512 512;" version="1.1" viewBox="0 0 512 512" xml:space="preserve" xmlns="http://www.w3.org/2000/svg" xmlns:xlink="http://www.w3.org/1999/xlink"><style type="text/css">
	.st0{fill:#1E1E1E;}
	.st1{fill:#464646;stroke:#21759B;stroke-width:2;stroke-miterlimit:10;}
	.st2{fill-rule:evenodd;clip-rule:evenodd;fill:#FFFFFF;}
	.st3{fill:#FFFFFF;}
</style><g id="Edges"/><g id="Background_Bottom"><g><path class="st0" d="M492.3,443.1c0,34.2-27.7,61.9-61.9,61.9H80.7c-34.2,0-61.9-27.7-61.9-61.9V93.4c0-34.2,27.7-61.9,61.9-61.9    h349.7c34.2,0,61.9,27.7,61.9,61.9V443.1z"/></g></g><g id="Background"><path class="st1" d="M492.3,418.4c0,34.2-27.7,61.9-61.9,61.9H80.7c-34.2,0-61.9-27.7-61.9-61.9V68.6c0-34.2,27.7-61.9,61.9-61.9   h349.7c34.2,0,61.9,27.7,61.9,61.9V418.4z"/></g><g id="Symbol"><g><path class="st2" d="M255.6,106.9c-84.5,0-153,68.5-153,153c0,67.6,43.8,125,104.6,145.2c7.6,1.4,10.5-3.3,10.5-7.4    c0-3.6-0.1-15.7-0.2-28.5c-42.6,9.3-51.6-18.1-51.6-18.1c-7-17.7-17-22.4-17-22.4c-13.9-9.5,1-9.3,1-9.3    c15.4,1.1,23.5,15.8,23.5,15.8c13.6,23.4,35.8,16.6,44.5,12.7c1.4-9.9,5.3-16.6,9.7-20.5c-34-3.9-69.7-17-69.7-75.6    c0-16.7,6-30.4,15.8-41.1c-1.6-3.9-6.8-19.4,1.5-40.5c0,0,12.9-4.1,42.1,15.7c12.2-3.4,25.3-5.1,38.3-5.2    c13,0.1,26.1,1.8,38.3,5.2c29.2-19.8,42-15.7,42-15.7c8.3,21.1,3.1,36.6,1.5,40.5c9.8,10.7,15.7,24.4,15.7,41.1    c0,58.8-35.8,71.7-69.9,75.5c5.5,4.7,10.4,14.1,10.4,28.3c0,20.5-0.2,37-0.2,42c0,4.1,2.8,8.8,10.5,7.3    c60.8-20.3,104.6-77.6,104.6-145.2C408.6,175.4,340.1,106.9,255.6,106.9z"/><path class="st3" d="M160.5,326.6c-0.3,0.8-1.5,1-2.6,0.5c-1.1-0.5-1.7-1.5-1.4-2.3c0.3-0.8,1.5-1,2.6-0.5    C160.3,324.8,160.9,325.8,160.5,326.6L160.5,326.6z M158.6,325.2"/><path class="st3" d="M166.7,333.5c-0.7,0.7-2.2,0.4-3.1-0.7c-1-1.1-1.2-2.5-0.4-3.2c0.8-0.7,2.1-0.4,3.1,0.7    C167.3,331.4,167.5,332.8,166.7,333.5L166.7,333.5z M165.3,331.9"/><path class="st3" d="M172.7,342.3c-0.9,0.7-2.5,0-3.4-1.3c-0.9-1.4-0.9-3,0-3.6c0.9-0.7,2.5-0.1,3.4,1.3    C173.7,340,173.7,341.6,172.7,342.3L172.7,342.3z M172.7,342.3"/><path class="st3" d="M181,350.8c-0.8,0.9-2.6,0.7-3.9-0.6c-1.3-1.2-1.7-3-0.9-3.9c0.9-0.9,2.6-0.7,4,0.6    C181.5,348.2,181.9,349.9,181,350.8L181,350.8z M181,350.8"/><path class="st3" d="M192.4,355.8c-0.4,1.2-2.1,1.7-3.8,1.2c-1.7-0.5-2.9-1.9-2.5-3.1c0.4-1.2,2.1-1.8,3.8-1.2    C191.6,353.2,192.8,354.6,192.4,355.8L192.4,355.8z M192.4,355.8"/><path class="st3" d="M204.9,356.7c0,1.3-1.4,2.3-3.2,2.3c-1.8,0-3.3-1-3.3-2.2c0-1.3,1.4-2.3,3.3-2.3    C203.4,354.4,204.9,355.4,204.9,356.7L204.9,356.7z M204.9,356.7"/><path class="st3" d="M216.6,354.7c0.2,1.2-1,2.5-2.9,2.8c-1.8,0.3-3.4-0.4-3.6-1.7c-0.2-1.3,1.1-2.5,2.8-2.9    C214.7,352.7,216.4,353.5,216.6,354.7L216.6,354.7z M216.6,354.7"/></g></g></svg>