<?xml version="1.0" ?><svg style="enable-background:new 0 0 512 512;" version="1.1" viewBox="0 0 512 512" xml:space="preserve" xmlns="http://www.w3.org/2000/svg" xmlns:xlink="http://www.w3.org/1999/xlink"><style type="text/css">
	.st0{fill:#1E1E1E;}
	.st1{fill:#464646;stroke:#21759B;stroke-width:2;stroke-miterlimit:10;}
	.st2{fill:#FFFFFF;}
</style><g id="Edges"/><g id="Background_Bottom"><g><path class="st0" d="M492.3,443.1c0,34.2-27.7,61.9-61.9,61.9H80.7c-34.2,0-61.9-27.7-61.9-61.9V93.4c0-34.2,27.7-61.9,61.9-61.9    h349.7c34.2,0,61.9,27.7,61.9,61.9V443.1z"/></g></g><g id="Background"><path class="st1" d="M492.3,418.4c0,34.2-27.7,61.9-61.9,61.9H80.7c-34.2,0-61.9-27.7-61.9-61.9V68.6c0-34.2,27.7-61.9,61.9-61.9   h349.7c34.2,0,61.9,27.7,61.9,61.9V418.4z"/></g><g id="Symbol"><path class="st2" d="M406.6,251.9c0,2.8,0,5.6,0,8.5c0,0.3-0.1,0.6-0.1,0.9c-0.3,8.6-1.3,17.2-3.1,25.6c-3.3,15.9-9.1,31-17.3,45   c-11,18.8-25.4,34.6-43.2,47.2c-15.1,10.7-31.6,18.4-49.6,23c-6,1.5-12,2.8-18.2,3.5c-3.4,0.4-6.8,0.8-10.3,1   c-2.4,0.2-4.8,0.1-7.2,0.2c-0.3,0-0.7,0.1-1,0.2c-0.6,0-1.2,0-1.8,0c-0.4-0.1-0.8-0.2-1.2-0.2c-3.5-0.2-6.9-0.2-10.4-0.5   c-4-0.3-8-0.7-11.9-1.4c-5.1-0.9-10.1-2-15.1-3.2c-7.6-1.9-15-4.6-22.1-7.8c-17.2-7.7-32.4-18.1-45.6-31.5   c-16.9-17-29.1-36.9-36.5-59.7c-0.3-0.8-0.5-1.5-0.8-2.5c0.5,0.2,0.9,0.3,1.2,0.5c6.4,2.6,12.8,5.3,19.1,7.9   c11.9,4.9,23.9,9.9,35.9,14.8c0.6,0.2,0.9,0.6,1,1.2c4.5,18.1,19.7,30.5,37.7,31.9c5.1,0.4,10.1-0.2,15-1.7   c17.7-5.3,29.9-21.6,29.9-40c0-1,0.3-1.5,1.1-2.1c17.1-12.2,34.1-24.4,51.2-36.5c0.3-0.2,0.8-0.4,1.2-0.4c4.5,0.1,9-0.4,13.4-1.4   c11.5-2.7,21.4-8.3,29.3-17.1c13.3-14.9,18-32.2,13.7-51.7c-5.3-24.3-25.8-42-50.6-44.4c-10.3-1-20.1,0.7-29.5,5.1   c-20.2,9.4-33.1,29.8-33.1,52.1c0,0.4-0.1,0.9-0.3,1.2c-12.1,17.5-24.1,35.1-36.2,52.6c-0.3,0.4-0.5,0.5-1,0.5   c-2.4,0.1-4.7,0.1-7.1,0.4c-6,0.8-11.5,2.9-16.6,6.1c-0.3,0.2-0.7,0.2-1,0.1c-3-1.2-6-2.4-8.9-3.6c-14.7-6.1-29.4-12.1-44.2-18.2   c-9-3.7-18-7.4-27-11.1c-0.4-0.2-0.6-0.3-0.5-0.8c0.2-1.4,0.2-2.8,0.4-4.1c0.7-8,2.1-15.8,4.2-23.6c5.3-20.2,14.4-38.6,27.4-55   c15.8-20,35.3-35.1,58.7-45.3c9.4-4.1,19.2-7.2,29.3-9.3c7.2-1.5,14.5-2.4,21.8-2.8c1.5-0.1,3-0.2,4.4-0.3c3,0,5.9,0,8.9,0   c0.3,0,0.6,0.1,1,0.1c6.1,0.2,12.2,0.8,18.2,1.7c10.2,1.6,20.1,4.2,29.7,7.9c19,7.2,35.9,17.8,50.6,31.8   c20.5,19.6,34.5,43.1,41.9,70.5c2.6,9.8,4.2,19.8,4.8,30C406.4,248.8,406.5,250.4,406.6,251.9z"/><path class="st2" d="M305.3,180.1c21,0,38.1,17.2,38.1,38.3c0,21.2-17.2,38.3-38.5,38.2c-20.6-0.1-37.8-17-37.8-38.3   C267.1,197.2,284.2,180.1,305.3,180.1z M305.3,247c15.8,0,28.7-12.9,28.7-28.7c0-15.9-12.8-28.7-28.6-28.8   c-15.9,0-28.7,12.7-28.8,28.7C276.6,234.1,289.4,247,305.3,247z"/><path class="st2" d="M180.4,328.7c1.6,0.7,3.2,1.3,4.7,1.9c4.8,2,9.6,4.1,14.5,6c12,4.7,25.8-1.4,30.5-13.4   c4.9-12.4-0.9-26-13.3-31.1c-6-2.5-12-5-18-7.5c-0.2-0.1-0.4-0.2-0.6-0.3c12.7-5.3,31.9-1,40.2,16.2c8.1,16.8,0.3,36.9-17,43.8   C204,351.5,186.5,342.3,180.4,328.7z"/></g></svg>