<?xml version="1.0" encoding="UTF-8" standalone="no"?>
<svg
   xmlns:dc="http://purl.org/dc/elements/1.1/"
   xmlns:cc="http://creativecommons.org/ns#"
   xmlns:rdf="http://www.w3.org/1999/02/22-rdf-syntax-ns#"
   xmlns:svg="http://www.w3.org/2000/svg"
   xmlns="http://www.w3.org/2000/svg"
   xmlns:sodipodi="http://sodipodi.sourceforge.net/DTD/sodipodi-0.dtd"
   xmlns:inkscape="http://www.inkscape.org/namespaces/inkscape"
   enable-background="new 0 0 512 512"
   height="512px"
   id="Layer_1"
   version="1.1"
   viewBox="0 0 512 512"
   width="512px"
   xml:space="preserve"
   sodipodi:docname="if_github_328033.svg"
   inkscape:version="0.92.3 (3ce5693, 2018-03-11)"><metadata
     id="metadata15"><rdf:RDF><cc:Work
         rdf:about=""><dc:format>image/svg+xml</dc:format><dc:type
           rdf:resource="http://purl.org/dc/dcmitype/StillImage" /></cc:Work></rdf:RDF></metadata><defs
     id="defs13" /><sodipodi:namedview
     pagecolor="#ffffff"
     bordercolor="#666666"
     borderopacity="1"
     objecttolerance="10"
     gridtolerance="10"
     guidetolerance="10"
     inkscape:pageopacity="0"
     inkscape:pageshadow="2"
     inkscape:window-width="1138"
     inkscape:window-height="480"
     id="namedview11"
     showgrid="false"
     inkscape:zoom="0.4609375"
     inkscape:cx="-104.13559"
     inkscape:cy="256"
     inkscape:window-x="396"
     inkscape:window-y="231"
     inkscape:window-maximized="0"
     inkscape:current-layer="Layer_1" /><path
     d="M492.668,442.732c0,34.171-27.702,61.872-61.873,61.872H81.052c-34.171,0-61.875-27.701-61.875-61.872  V92.987c0-34.171,27.704-61.873,61.875-61.873h349.743c34.171,0,61.873,27.701,61.873,61.873V442.732z"
     fill="#1C1C1C"
     id="path2" /><path
     d="M492.668,417.988c0,34.172-27.702,61.873-61.873,61.873H81.052c-34.171,0-61.875-27.701-61.875-61.873  V68.243c0-34.171,27.704-61.872,61.875-61.872h349.743c34.171,0,61.873,27.701,61.873,61.872V417.988z"
     fill="#515151"
     id="path4"
     style="fill:#e30080;fill-opacity:1" /><path
     d="M492.668,417.989V258.57c-6.509-6.505-149.589-149.497-149.746-149.746  c-9.217-3.22-32.056,8.288-44.543,16.39c-20.333-5.84-63.34-5.283-79.468,1.507c-29.755-20.941-45.5-17.731-45.5-17.731  s-10.174,17.919-2.688,44.144c-9.789,12.266-17.088,20.94-17.088,43.938c0.007,12.97,1.563,24.566,5.061,34.691  c-0.428,0,4.696,10.845,4.838,10.845c2.805,5.004,6.264,9.533,10.443,13.565c0.331,0.335,43.294,43.297,43.444,43.445  c-7.034,2.926-18.071,3.596-26.914,0.857c-0.127-0.04-0.248-0.095-0.374-0.138c-0.212-0.214-20.307-20.302-20.645-20.629  c-5.162-5.349-11.295-9.17-20.169-7.527c-3.973,0.732-3.853,3.048-1.214,5.304c0.275,0.331,16.279,16.32,16.439,16.48  c0.858,1.534,1.685,3.194,2.471,5.029c1.737,4.043,4.391,9.604,9.308,14.318c0.322,0.338,41.634,41.648,41.966,41.969  c-2.762,6.83-12.627,9.419-12.627,13.438c0,0.467,85.206,85.705,110.825,111.141h114.31  C464.966,479.861,492.668,452.16,492.668,417.989z"
     fill="#343434"
     id="path6"
     style="fill:#ac0070;fill-opacity:1" /><path
     d="M158.695,231.763c-0.428,0,4.696,10.845,4.838,10.845c11.187,19.955,32.745,32.364,69.12,35.789  c-5.192,3.874-11.428,11.232-12.293,19.724c-6.526,4.143-19.653,5.515-29.854,2.355c-14.302-4.44-19.776-32.259-41.187-28.294  c-4.632,0.854-3.712,3.861,0.294,6.415c6.53,4.147,12.669,9.342,17.401,20.398c3.644,8.481,11.294,23.648,35.487,23.648  c9.593,0,16.322-1.141,16.322-1.141s0.181,21.668,0.181,30.09c0,9.721-13.344,12.456-13.344,17.127c0,1.846,4.421,2.021,7.967,2.021  c7.013,0,21.602-5.756,21.602-15.85c0-8.016,0.134-34.991,0.134-39.709c0-10.309,5.625-13.58,5.625-13.58s0.696,55.062-1.341,62.446  c-2.397,8.676-6.72,7.444-6.72,11.318c0,5.763,17.565,1.407,23.388-11.233c4.497-9.838,2.53-63.855,2.53-63.855l4.798-0.1  c0,0,0.271,24.727,0.104,36.036c-0.168,11.706-0.978,26.508,6.096,33.488c4.648,4.587,19.707,12.649,19.707,5.284  c0-4.277-8.251-7.787-8.251-19.358v-53.266c6.594,0,5.602,17.507,5.602,17.507l0.479,32.551c0,0-1.453,11.854,13.055,16.809  c5.121,1.768,16.057,2.232,16.578-0.711c0.518-2.959-13.185-7.359-13.311-16.547c-0.084-5.592,0.258-8.862,0.258-33.201  c0-24.34-3.33-33.332-14.921-40.499c35.757-3.607,57.897-12.307,68.679-35.588c0.838,0.017,4.398-10.874,3.934-10.874  c2.418-8.791,3.736-19.191,3.98-31.502c-0.059-33.401-16.318-45.208-19.441-50.75c4.604-25.289-0.773-36.784-3.268-40.734  c-9.217-3.22-32.056,8.288-44.543,16.39c-20.333-5.84-63.34-5.283-79.468,1.507c-29.755-20.941-45.5-17.731-45.5-17.731  s-10.174,17.919-2.688,44.144c-9.789,12.266-17.088,20.939-17.088,43.938C153.642,210.043,155.198,221.639,158.695,231.763z"
     fill="#FFFFFF"
     id="path8" /></svg>