<?xml version="1.0" encoding="UTF-8" standalone="no"?>
<!-- Created with Inkscape (http://www.inkscape.org/) -->

<svg
   xmlns:dc="http://purl.org/dc/elements/1.1/"
   xmlns:cc="http://creativecommons.org/ns#"
   xmlns:rdf="http://www.w3.org/1999/02/22-rdf-syntax-ns#"
   xmlns:svg="http://www.w3.org/2000/svg"
   xmlns="http://www.w3.org/2000/svg"
   xmlns:sodipodi="http://sodipodi.sourceforge.net/DTD/sodipodi-0.dtd"
   xmlns:inkscape="http://www.inkscape.org/namespaces/inkscape"
   width="260mm"
   height="260mm"
   viewBox="0 0 260 260"
   version="1.1"
   id="svg33"
   inkscape:version="0.92.4 (5da689c313, 2019-01-14)"
   sodipodi:docname="noun_gate_3214645.svg">
  <defs
     id="defs27" />
  <sodipodi:namedview
     id="base"
     pagecolor="#ffffff"
     bordercolor="#666666"
     borderopacity="1.0"
     inkscape:pageopacity="0.0"
     inkscape:pageshadow="2"
     inkscape:zoom="0.49497475"
     inkscape:cx="-366.01726"
     inkscape:cy="317.5303"
     inkscape:document-units="mm"
     inkscape:current-layer="layer1"
     showgrid="false"
     inkscape:window-width="1920"
     inkscape:window-height="1017"
     inkscape:window-x="-8"
     inkscape:window-y="-8"
     inkscape:window-maximized="1" />
  <metadata
     id="metadata30">
    <rdf:RDF>
      <cc:Work
         rdf:about="">
        <dc:format>image/svg+xml</dc:format>
        <dc:type
           rdf:resource="http://purl.org/dc/dcmitype/StillImage" />
        <dc:title></dc:title>
      </cc:Work>
    </rdf:RDF>
  </metadata>
  <g
     inkscape:label="Layer 1"
     inkscape:groupmode="layer"
     id="layer1"
     transform="translate(0,-37)">
    <path
       d="m 245.47616,276.18658 h -6.83769 v -33.59363 a 6.8376844,6.8376844 0 1 0 0,-13.60112 V 126.72374 a 6.8376844,6.8376844 0 0 0 6.83769,-6.83777 6.9120066,6.9120066 0 0 0 -6.83769,-6.8375 V 98.183862 A 27.276414,27.276414 0 0 0 231.8008,44.522943 H 27.264838 a 27.276414,27.276414 0 0 0 -6.837666,53.660919 v 14.864608 a 6.9120066,6.9120066 0 0 0 -6.837693,6.8375 6.8376844,6.8376844 0 0 0 6.837693,6.83777 v 102.26809 a 6.8376844,6.8376844 0 1 0 0,13.60112 v 33.59363 h -6.837693 a 6.8376844,6.8376844 0 0 0 0,13.60112 H 245.47616 a 6.8376844,6.8376844 0 0 0 0,-13.60112 z M 13.589479,71.650753 A 13.749691,13.749691 0 0 1 27.264838,57.975485 H 231.8008 a 13.675368,13.675368 0 1 1 0,27.276385 H 27.264838 A 13.675368,13.675368 0 0 1 13.589479,71.650753 Z M 34.102531,126.72374 V 98.927109 H 224.96311 V 228.99183 h -47.71515 v -48.30972 a 47.715144,47.715144 0 0 0 -95.430282,0 v 48.30972 H 34.102531 Z M 163.64693,242.59295 v 33.59363 H 95.418735 v -95.50447 a 34.114099,34.114099 0 0 1 68.228195,0 z M 34.102531,276.18658 v -33.59363 h 47.715147 v 33.59363 z m 143.145429,0 v -33.59363 h 47.71515 v 33.59363 z"
       id="path4"
       inkscape:connector-curvature="0"
       style="stroke-width:7.4322648"
       inkscape:export-filename="E:\Downloads\path3750.png"
       inkscape:export-xdpi="95.5"
       inkscape:export-ydpi="95.5" />
    <path
       style="fill:#0000ff;stroke-width:0.72277707"
       d="m 21.865586,83.509544 c -5.207117,-2.40324 -7.589158,-6.195199 -7.589158,-12.081143 0,-4.345129 2.259975,-8.520671 5.92426,-10.945697 l 3.004596,-1.988443 105.216986,-0.214527 c 73.4031,-0.149661 106.02668,0.02006 107.89483,0.561337 5.31723,1.540587 9.93901,7.429139 9.93901,12.663177 0,4.685535 -4.37736,10.905439 -8.86932,12.602616 -1.40435,0.530601 -34.65533,0.763841 -107.33239,0.752885 C 29.226883,84.844552 24.63396,84.787225 21.865586,83.509544 Z"
       id="path3744"
       inkscape:connector-curvature="0"
       inkscape:export-filename="E:\Downloads\path3750.png"
       inkscape:export-xdpi="95.5"
       inkscape:export-ydpi="95.5" />
    <path
       style="fill:#0000ff;stroke-width:0.72277707"
       d="M 34.514185,164.01968 V 99.331136 h 95.045185 95.04518 v 64.688544 64.68855 H 201.1143 177.62404 v -26.05045 c 0,-29.82919 -0.42261,-33.34733 -5.20577,-43.33615 -2.39089,-4.993 -4.10784,-7.3096 -9.16762,-12.36937 -5.05976,-5.05976 -7.37635,-6.77672 -12.36936,-9.16762 -14.06872,-6.73681 -28.57385,-6.78441 -42.28246,-0.13877 -10.043559,4.86891 -17.038691,11.84613 -22.093706,22.03715 -4.637772,9.34983 -4.983622,12.28827 -4.99788,42.46314 l -0.01259,26.56207 H 58.00444 34.514185 Z"
       id="path3746"
       inkscape:connector-curvature="0"
       inkscape:export-filename="E:\Downloads\path3750.png"
       inkscape:export-xdpi="95.5"
       inkscape:export-ydpi="95.5" />
    <path
       style="fill:#0000ff;stroke-width:0.72277707"
       d="M 34.514185,259.42625 V 243.16376 H 58.00444 81.494694 v 16.26249 16.26248 H 58.00444 34.514185 Z"
       id="path3748"
       inkscape:connector-curvature="0"
       inkscape:export-filename="E:\Downloads\path3750.png"
       inkscape:export-xdpi="95.5"
       inkscape:export-ydpi="95.5" />
    <path
       style="fill:#0000ff;stroke-width:0.72277707"
       d="m 177.62404,259.42625 v -16.26249 h 23.49026 23.49025 v 16.26249 16.26248 H 201.1143 177.62404 Z"
       id="path3750"
       inkscape:connector-curvature="0"
       inkscape:export-filename="E:\Downloads\path3750.png"
       inkscape:export-xdpi="95.5"
       inkscape:export-ydpi="95.5" />
    <path
       style="fill:#ff00ff;stroke-width:2.02030516"
       d="m 99.385745,177.59802 c -27.478463,-2.37699 -42.06792,-16.80451 -43.627032,-43.14278 -0.769297,-12.99582 -0.239426,-15.80191 4.852862,-25.69984 3.712779,-7.21656 9.13436,-13.664862 15.467694,-18.396908 L 85.83051,83.072703 400.3561,81.579271 c 172.98907,-0.821388 354.51958,-0.834772 403.40114,-0.02974 80.36336,1.323503 89.57884,1.818199 96.21827,5.165097 17.71266,8.928829 31.52332,31.336072 29.30212,47.541502 -1.51921,11.08391 -5.48683,18.89134 -14.889,29.29843 -14.83593,16.4216 27.09037,14.87214 -409.6544,15.1395 -214.45538,0.13128 -396.8622,-0.36194 -405.348485,-1.09604 z"
       id="path3752"
       inkscape:connector-curvature="0"
       transform="matrix(0.26458333,0,0,0.26458333,0,37)" />
    <path
       style="fill:#ff00ff;stroke-width:2.02030516"
       d="M 131.98794,479.48083 V 236.03406 h 357.594 357.594 V 479.48083 722.92759 H 759.45102 671.72613 L 670.86346,618.3768 c -0.99337,-120.38948 -0.83431,-119.07335 -18.86103,-156.05683 -10.80364,-22.16469 -12.47071,-24.37221 -35.8627,-47.48891 -21.1414,-20.89259 -26.94137,-25.42172 -41.9605,-32.76649 -56.12654,-27.4474 -113.52434,-27.65949 -167.42979,-0.61867 -35.72116,17.91896 -61.21125,43.84582 -80.11738,81.49018 -17.54477,34.93372 -17.48467,34.42915 -18.39293,154.43057 l -0.79896,105.56094 h -87.72611 -87.72612 z"
       id="path3754"
       inkscape:connector-curvature="0"
       transform="matrix(0.26458333,0,0,0.26458333,0,37)" />
    <path
       style="fill:#ff00ff;stroke-width:2.02030516"
       d="m 131.98794,840.10528 v -60.60915 h 87.88327 87.88328 v 60.60915 60.60916 h -87.88328 -87.88327 z"
       id="path3756"
       inkscape:connector-curvature="0"
       transform="matrix(0.26458333,0,0,0.26458333,0,37)" />
    <path
       style="fill:#4056a1;stroke-width:2.02030516;fill-opacity:0"
       d="m 671.4094,840.10528 v -60.60915 h 87.88327 87.88327 v 60.60915 60.60916 H 759.29267 671.4094 Z"
       id="path3758"
       inkscape:connector-curvature="0"
       transform="matrix(0.26458333,0,0,0.26458333,0,37)" />
    <path
       style="fill:#4056a1;fill-opacity:0;stroke-width:2.02030516"
       d="M 90.000957,175.2399 C 67.964667,170.05096 56.270615,154.24144 56.237769,129.59449 56.217489,114.37651 64.886482,98.961627 78.943966,89.21916 l 8.25074,-5.718132 377.970314,-0.662658 c 226.80262,-0.397631 389.1324,0.10909 405.87929,1.266971 26.49738,1.832031 28.28561,2.230554 35.35534,7.879241 16.68281,13.329498 24.98679,32.723388 20.74938,48.459988 -2.18081,8.09887 -16.11571,28.51646 -21.53047,31.54672 -1.66281,0.93055 -13.67435,2.51683 -26.69233,3.52507 -30.68177,2.3763 -778.77289,2.11414 -788.925273,-0.27646 z"
       id="path4575"
       inkscape:connector-curvature="0"
       transform="matrix(0.26458333,0,0,0.26458333,0,37)" />
    <path
       style="fill:#4056a1;fill-opacity:0;stroke-width:2.02030516"
       d="M 132.9981,479.48083 V 236.03406 h 356.58384 356.58385 v 243.44677 243.44676 h -86.87312 -86.87312 l -0.10081,-52.02286 c -0.17302,-89.38262 -3.15723,-165.62659 -6.97835,-178.29192 -5.83921,-19.35442 -22.59203,-50.85223 -33.74462,-63.44496 -39.40199,-44.49 -80.33607,-65.00217 -134.39558,-67.34597 -35.84544,-1.55411 -60.32918,3.91901 -93.48121,20.89689 -32.25609,16.51904 -55.26555,39.4495 -74.31251,74.05736 -17.78081,32.30731 -18.80913,37.18612 -20.75378,98.46614 -0.93443,29.44594 -1.74608,79.22121 -1.80366,110.6117 l -0.1047,57.07362 H 219.87121 132.9981 Z"
       id="path4577"
       inkscape:connector-curvature="0"
       transform="matrix(0.26458333,0,0,0.26458333,0,37)" />
    <path
       style="fill:#4056a1;fill-opacity:0;stroke-width:2.02030516"
       d="M 132.9981,479.48083 V 236.03406 h 356.58384 356.58385 v 243.44677 243.44676 h -86.87312 -86.87312 l -0.10081,-52.02286 c -0.17302,-89.38262 -3.15723,-165.62659 -6.97835,-178.29192 -5.83921,-19.35442 -22.59203,-50.85223 -33.74462,-63.44496 -39.40199,-44.49 -80.33607,-65.00217 -134.39558,-67.34597 -35.84544,-1.55411 -60.32918,3.91901 -93.48121,20.89689 -32.25609,16.51904 -55.26555,39.4495 -74.31251,74.05736 -17.78081,32.30731 -18.80913,37.18612 -20.75378,98.46614 -0.93443,29.44594 -1.74608,79.22121 -1.80366,110.6117 l -0.1047,57.07362 H 219.87121 132.9981 Z"
       id="path4579"
       inkscape:connector-curvature="0"
       transform="matrix(0.26458333,0,0,0.26458333,0,37)" />
    <path
       style="fill:#4056a1;fill-opacity:0;stroke-width:2.02030516"
       d="M 132.9981,479.48083 V 236.03406 h 356.58384 356.58385 v 243.44677 243.44676 h -86.87312 -86.87312 l -0.10081,-52.02286 c -0.17302,-89.38262 -3.15723,-165.62659 -6.97835,-178.29192 -5.83921,-19.35442 -22.59203,-50.85223 -33.74462,-63.44496 -39.40199,-44.49 -80.33607,-65.00217 -134.39558,-67.34597 -35.84544,-1.55411 -60.32918,3.91901 -93.48121,20.89689 -32.25609,16.51904 -55.26555,39.4495 -74.31251,74.05736 -17.78081,32.30731 -18.80913,37.18612 -20.75378,98.46614 -0.93443,29.44594 -1.74608,79.22121 -1.80366,110.6117 l -0.1047,57.07362 H 219.87121 132.9981 Z"
       id="path4581"
       inkscape:connector-curvature="0"
       transform="matrix(0.26458333,0,0,0.26458333,0,37)" />
    <path
       style="fill:#000000;fill-opacity:0;stroke-width:2.02030516"
       d="M 132.9981,479.48083 V 236.03406 h 356.58384 356.58385 v 243.44677 243.44676 h -86.87312 -86.87312 l -0.10081,-52.02286 c -0.17302,-89.38262 -3.15723,-165.62659 -6.97835,-178.29192 -5.83921,-19.35442 -22.59203,-50.85223 -33.74462,-63.44496 -39.40199,-44.49 -80.33607,-65.00217 -134.39558,-67.34597 -35.84544,-1.55411 -60.32918,3.91901 -93.48121,20.89689 -32.25609,16.51904 -55.26555,39.4495 -74.31251,74.05736 -17.78081,32.30731 -18.80913,37.18612 -20.75378,98.46614 -0.93443,29.44594 -1.74608,79.22121 -1.80366,110.6117 l -0.1047,57.07362 H 219.87121 132.9981 Z"
       id="path4583"
       inkscape:connector-curvature="0"
       transform="matrix(0.26458333,0,0,0.26458333,0,37)" />
    <path
       style="fill:#000000;fill-opacity:0;stroke-width:2.02030516"
       d="M 132.9981,479.48083 V 236.03406 h 356.58384 356.58385 v 243.44677 243.44676 h -86.87312 -86.87312 l -0.10081,-52.02286 c -0.17302,-89.38262 -3.15723,-165.62659 -6.97835,-178.29192 -5.83921,-19.35442 -22.59203,-50.85223 -33.74462,-63.44496 -39.40199,-44.49 -80.33607,-65.00217 -134.39558,-67.34597 -35.84544,-1.55411 -60.32918,3.91901 -93.48121,20.89689 -32.25609,16.51904 -55.26555,39.4495 -74.31251,74.05736 -17.78081,32.30731 -18.80913,37.18612 -20.75378,98.46614 -0.93443,29.44594 -1.74608,79.22121 -1.80366,110.6117 l -0.1047,57.07362 H 219.87121 132.9981 Z"
       id="path4585"
       inkscape:connector-curvature="0"
       transform="matrix(0.26458333,0,0,0.26458333,0,37)" />
    <path
       style="fill:#000000;fill-opacity:0;stroke-width:2.02030516"
       d="M 132.9981,479.48083 V 236.03406 h 356.58384 356.58385 v 243.44677 243.44676 h -86.87312 -86.87312 l -0.10081,-52.02286 c -0.17302,-89.38262 -3.15723,-165.62659 -6.97835,-178.29192 -5.83921,-19.35442 -22.59203,-50.85223 -33.74462,-63.44496 -39.40199,-44.49 -80.33607,-65.00217 -134.39558,-67.34597 -35.84544,-1.55411 -60.32918,3.91901 -93.48121,20.89689 -32.25609,16.51904 -55.26555,39.4495 -74.31251,74.05736 -17.78081,32.30731 -18.80913,37.18612 -20.75378,98.46614 -0.93443,29.44594 -1.74608,79.22121 -1.80366,110.6117 l -0.1047,57.07362 H 219.87121 132.9981 Z"
       id="path4587"
       inkscape:connector-curvature="0"
       transform="matrix(0.26458333,0,0,0.26458333,0,37)" />
    <path
       style="fill:none;fill-opacity:0;stroke-width:2.02030516;opacity:0.99999999"
       d="M 132.9981,479.48083 V 236.03406 h 356.58384 356.58385 v 243.44677 243.44676 h -86.87312 -86.87312 l -0.10081,-52.02286 c -0.17302,-89.38262 -3.15723,-165.62659 -6.97835,-178.29192 -5.83921,-19.35442 -22.59203,-50.85223 -33.74462,-63.44496 -39.40199,-44.49 -80.33607,-65.00217 -134.39558,-67.34597 -35.84544,-1.55411 -60.32918,3.91901 -93.48121,20.89689 -32.25609,16.51904 -55.26555,39.4495 -74.31251,74.05736 -17.78081,32.30731 -18.80913,37.18612 -20.75378,98.46614 -0.93443,29.44594 -1.74608,79.22121 -1.80366,110.6117 l -0.1047,57.07362 H 219.87121 132.9981 Z"
       id="path4589"
       inkscape:connector-curvature="0"
       transform="matrix(0.26458333,0,0,0.26458333,0,37)" />
    <path
       style="opacity:1;fill:none;fill-opacity:0;stroke-width:2.02030516"
       d="M 132.9981,479.48083 V 236.03406 h 356.58384 356.58385 v 243.44677 243.44676 h -86.87312 -86.87312 l -0.10081,-52.02286 c -0.17302,-89.38262 -3.15723,-165.62659 -6.97835,-178.29192 -5.83921,-19.35442 -22.59203,-50.85223 -33.74462,-63.44496 -39.40199,-44.49 -80.33607,-65.00217 -134.39558,-67.34597 -35.84544,-1.55411 -60.32918,3.91901 -93.48121,20.89689 -32.25609,16.51904 -55.26555,39.4495 -74.31251,74.05736 -17.78081,32.30731 -18.80913,37.18612 -20.75378,98.46614 -0.93443,29.44594 -1.74608,79.22121 -1.80366,110.6117 l -0.1047,57.07362 H 219.87121 132.9981 Z"
       id="path4591"
       inkscape:connector-curvature="0"
       transform="matrix(0.26458333,0,0,0.26458333,0,37)" />
    <path
       style="opacity:1;fill:none;fill-opacity:0;stroke-width:2.02030516"
       d="M 132.9981,479.48083 V 236.03406 h 356.58384 356.58385 v 243.44677 243.44676 h -86.87312 -86.87312 l -0.10081,-52.02286 c -0.17302,-89.38262 -3.15723,-165.62659 -6.97835,-178.29192 -5.83921,-19.35442 -22.59203,-50.85223 -33.74462,-63.44496 -39.40199,-44.49 -80.33607,-65.00217 -134.39558,-67.34597 -35.84544,-1.55411 -60.32918,3.91901 -93.48121,20.89689 -32.25609,16.51904 -55.26555,39.4495 -74.31251,74.05736 -17.78081,32.30731 -18.80913,37.18612 -20.75378,98.46614 -0.93443,29.44594 -1.74608,79.22121 -1.80366,110.6117 l -0.1047,57.07362 H 219.87121 132.9981 Z"
       id="path4593"
       inkscape:connector-curvature="0"
       transform="matrix(0.26458333,0,0,0.26458333,0,37)" />
    <path
       style="opacity:1;fill:#4056a1;fill-opacity:0;stroke-width:2.02030516"
       d="M 132.9981,479.48083 V 236.03406 h 356.58384 356.58385 v 243.44677 243.44676 h -86.87312 -86.87312 l -0.10081,-52.02286 c -0.17302,-89.38262 -3.15723,-165.62659 -6.97835,-178.29192 -5.83921,-19.35442 -22.59203,-50.85223 -33.74462,-63.44496 -39.40199,-44.49 -80.33607,-65.00217 -134.39558,-67.34597 -35.84544,-1.55411 -60.32918,3.91901 -93.48121,20.89689 -32.25609,16.51904 -55.26555,39.4495 -74.31251,74.05736 -17.78081,32.30731 -18.80913,37.18612 -20.75378,98.46614 -0.93443,29.44594 -1.74608,79.22121 -1.80366,110.6117 l -0.1047,57.07362 H 219.87121 132.9981 Z"
       id="path4611"
       inkscape:connector-curvature="0"
       transform="matrix(0.26458333,0,0,0.26458333,0,37)" />
    <path
       style="opacity:1;fill:#4056a1;fill-opacity:0;stroke-width:2.02030516"
       d="M 132.9981,479.48083 V 236.03406 h 356.58384 356.58385 v 243.44677 243.44676 h -86.87312 -86.87312 l -0.10081,-52.02286 c -0.17302,-89.38262 -3.15723,-165.62659 -6.97835,-178.29192 -5.83921,-19.35442 -22.59203,-50.85223 -33.74462,-63.44496 -39.40199,-44.49 -80.33607,-65.00217 -134.39558,-67.34597 -35.84544,-1.55411 -60.32918,3.91901 -93.48121,20.89689 -32.25609,16.51904 -55.26555,39.4495 -74.31251,74.05736 -17.78081,32.30731 -18.80913,37.18612 -20.75378,98.46614 -0.93443,29.44594 -1.74608,79.22121 -1.80366,110.6117 l -0.1047,57.07362 H 219.87121 132.9981 Z"
       id="path4613"
       inkscape:connector-curvature="0"
       transform="matrix(0.26458333,0,0,0.26458333,0,37)" />
    <path
       style="opacity:1;fill:#4056a1;fill-opacity:0;stroke-width:2.02030516"
       d="M 90.000957,175.2399 C 67.964667,170.05096 56.270615,154.24144 56.237769,129.59449 56.217489,114.37651 64.886482,98.961627 78.943966,89.21916 l 8.25074,-5.718132 377.970314,-0.662658 c 226.80262,-0.397631 389.1324,0.10909 405.87929,1.266971 26.49738,1.832031 28.28561,2.230554 35.35534,7.879241 16.68281,13.329498 24.98679,32.723388 20.74938,48.459988 -2.18081,8.09887 -16.11571,28.51646 -21.53047,31.54672 -1.66281,0.93055 -13.67435,2.51683 -26.69233,3.52507 -30.68177,2.3763 -778.77289,2.11414 -788.925273,-0.27646 z"
       id="path4615"
       inkscape:connector-curvature="0"
       transform="matrix(0.26458333,0,0,0.26458333,0,37)" />
    <path
       style="opacity:1;fill:#4056a1;fill-opacity:0;stroke-width:2.02030516"
       d="m 672.41955,840.10528 v -60.60915 h 87.88328 87.88327 v 60.60915 60.60916 h -87.88327 -87.88328 z"
       id="path4617"
       inkscape:connector-curvature="0"
       transform="matrix(0.26458333,0,0,0.26458333,0,37)" />
    <path
       style="opacity:1;fill:#4056a1;fill-opacity:0;stroke-width:2.02030516"
       d="m 672.41955,840.10528 v -60.60915 h 87.88328 87.88327 v 60.60915 60.60916 h -87.88327 -87.88328 z"
       id="path4619"
       inkscape:connector-curvature="0"
       transform="matrix(0.26458333,0,0,0.26458333,0,37)" />
    <path
       style="opacity:1;fill:#4056a1;fill-opacity:0;stroke-width:2.02030516"
       d="m 672.41955,840.10528 v -60.60915 h 87.88328 87.88327 v 60.60915 60.60916 h -87.88327 -87.88328 z"
       id="path4621"
       inkscape:connector-curvature="0"
       transform="matrix(0.26458333,0,0,0.26458333,0,37)" />
    <path
       style="opacity:1;fill:#4056a1;fill-opacity:0;stroke-width:2.02030516"
       d="m 672.41955,840.10528 v -60.60915 h 87.88328 87.88327 v 60.60915 60.60916 h -87.88327 -87.88328 z"
       id="path4623"
       inkscape:connector-curvature="0"
       transform="matrix(0.26458333,0,0,0.26458333,0,37)" />
    <path
       style="opacity:1;fill:#4056a1;fill-opacity:0;stroke-width:2.02030516"
       d="m 672.41955,840.10528 v -60.60915 h 87.88328 87.88327 v 60.60915 60.60916 h -87.88327 -87.88328 z"
       id="path4625"
       inkscape:connector-curvature="0"
       transform="matrix(0.26458333,0,0,0.26458333,0,37)" />
    <path
       style="opacity:1;fill:#4056a1;fill-opacity:0;stroke-width:2.02030516"
       d="m 672.41955,840.10528 v -60.60915 h 87.88328 87.88327 v 60.60915 60.60916 h -87.88327 -87.88328 z"
       id="path4627"
       inkscape:connector-curvature="0"
       transform="matrix(0.26458333,0,0,0.26458333,0,37)" />
    <path
       style="opacity:1;fill:#4056a1;fill-opacity:0;stroke-width:2.02030516"
       d="m 672.41955,840.10528 v -60.60915 h 87.88328 87.88327 v 60.60915 60.60916 h -87.88327 -87.88328 z"
       id="path4629"
       inkscape:connector-curvature="0"
       transform="matrix(0.26458333,0,0,0.26458333,0,37)" />
    <path
       style="opacity:1;fill:#4056a1;fill-opacity:1;stroke-width:2.02030516"
       d="M 132.9981,479.48083 V 236.03406 h 356.58384 356.58385 v 243.44677 243.44676 h -86.87312 -86.87312 l -0.10081,-52.02286 c -0.17302,-89.38262 -3.15723,-165.62659 -6.97835,-178.29192 -5.83921,-19.35442 -22.59203,-50.85223 -33.74462,-63.44496 -39.40199,-44.49 -80.33607,-65.00217 -134.39558,-67.34597 -35.84544,-1.55411 -60.32918,3.91901 -93.48121,20.89689 -32.25609,16.51904 -55.26555,39.4495 -74.31251,74.05736 -17.78081,32.30731 -18.80913,37.18612 -20.75378,98.46614 -0.93443,29.44594 -1.74608,79.22121 -1.80366,110.6117 l -0.1047,57.07362 H 219.87121 132.9981 Z"
       id="path4631"
       inkscape:connector-curvature="0"
       transform="matrix(0.26458333,0,0,0.26458333,0,37)" />
    <path
       style="opacity:1;fill:#4056a1;fill-opacity:1;stroke-width:2.02030516"
       d="M 132.9981,479.48083 V 236.03406 h 356.58384 356.58385 v 243.44677 243.44676 h -86.87312 -86.87312 v -69.40433 c 0,-82.89526 -2.88665,-147.32358 -7.29996,-162.93076 -4.62957,-16.37196 -22.0267,-48.45912 -34.17136,-63.02547 -21.18347,-25.40752 -54.06929,-48.25857 -82.36334,-57.23101 -23.25609,-7.37483 -41.80768,-9.64267 -70.11462,-8.57117 -21.51223,0.8143 -28.09744,1.9149 -44.44672,7.42848 -10.55609,3.5599 -26.92056,10.73902 -36.36549,15.95361 -32.22013,17.78889 -65.78677,57.22421 -80.51643,94.59368 -7.31126,18.5488 -8.61115,37.35687 -9.79108,141.66664 l -1.14838,101.52033 H 219.60013 132.9981 Z"
       id="path4633"
       inkscape:connector-curvature="0"
       transform="matrix(0.26458333,0,0,0.26458333,0,37)" />
    <path
       style="opacity:1;fill:#4056a1;fill-opacity:1;stroke-width:2.02030516"
       d="M 90.000957,175.2399 C 67.964667,170.05096 56.270615,154.24144 56.237769,129.59449 56.217489,114.37651 64.886482,98.961627 78.943966,89.21916 l 8.25074,-5.718132 377.970314,-0.662658 c 226.80262,-0.397631 389.1324,0.10909 405.87929,1.266971 26.49738,1.832031 28.28561,2.230554 35.35534,7.879241 16.68281,13.329498 24.98679,32.723388 20.74938,48.459988 -2.18081,8.09887 -16.11571,28.51646 -21.53047,31.54672 -1.66281,0.93055 -13.67435,2.51683 -26.69233,3.52507 -30.68177,2.3763 -778.77289,2.11414 -788.925273,-0.27646 z"
       id="path4635"
       inkscape:connector-curvature="0"
       transform="matrix(0.26458333,0,0,0.26458333,0,37)" />
    <path
       style="opacity:1;fill:#4056a1;fill-opacity:1;stroke-width:2.02030516"
       d="m 672.41955,840.10528 v -60.60915 h 87.88328 87.88327 v 60.60915 60.60916 h -87.88327 -87.88328 z"
       id="path4637"
       inkscape:connector-curvature="0"
       transform="matrix(0.26458333,0,0,0.26458333,0,37)" />
    <path
       style="opacity:1;fill:#5680e9;fill-opacity:1;stroke-width:2.02030516"
       d="m 132.9981,840.10528 v -60.60915 h 86.87311 86.87312 v 60.60915 60.60916 H 219.87121 132.9981 Z"
       id="path4639"
       inkscape:connector-curvature="0"
       transform="matrix(0.26458333,0,0,0.26458333,0,37)" />
    <path
       style="opacity:1;fill:#5680e9;fill-opacity:1;stroke-width:2.02030516"
       d="M 132.9981,479.48083 V 236.03406 h 356.58384 356.58385 v 243.44677 243.44676 h -86.58367 -86.58367 l -1.20774,-94.44926 C 670.38788,518.77253 668.8085,498.21677 660.19208,477.51919 640.84815,431.05297 601.47834,391.39571 557.01989,373.59368 c -31.32814,-12.5444 -82.68521,-15.85102 -113.90496,-7.33377 -17.32838,4.72746 -50.40866,21.10042 -65.05225,32.19739 -27.70859,20.99764 -55.9915,61.78864 -64.58343,93.14536 -3.82126,13.9459 -6.60124,81.90078 -6.67392,163.13963 l -0.061,68.1853 H 219.87121 132.9981 Z"
       id="path4641"
       inkscape:connector-curvature="0"
       transform="matrix(0.26458333,0,0,0.26458333,0,37)" />
    <path
       style="opacity:1;fill:#5680e9;fill-opacity:1;stroke-width:2.02030516"
       d="M 85.520926,172.98731 C 50.752605,160.83396 47.531119,111.12017 80.114616,89.557427 l 7.756763,-5.133182 402.885801,0.548544 c 447.89169,0.609821 407.46173,-0.734777 421.35582,14.013232 16.52058,17.535919 18.9605,34.481419 7.67796,53.324229 -10.56553,17.64535 -12.19894,18.82044 -29.23345,21.03086 -21.58009,2.80026 -796.988345,2.45948 -805.036584,-0.3538 z"
       id="path4643"
       inkscape:connector-curvature="0"
       transform="matrix(0.26458333,0,0,0.26458333,0,37)" />
    <path
       style="opacity:1;fill:#5680e9;fill-opacity:1;stroke-width:2.02030516"
       d="m 672.41955,840.10528 v -60.60915 h 87.88328 87.88327 v 60.60915 60.60916 h -87.88327 -87.88328 z"
       id="path4645"
       inkscape:connector-curvature="0"
       transform="matrix(0.26458333,0,0,0.26458333,0,37)" />
    <path
       style="opacity:1;fill:#5680e9;fill-opacity:1;stroke-width:2.02030516"
       d="m 132.9981,840.10528 v -60.60915 h 86.87311 86.87312 v 60.60915 60.60916 H 219.87121 132.9981 Z"
       id="path4647"
       inkscape:connector-curvature="0"
       transform="matrix(0.26458333,0,0,0.26458333,0,37)" />
    <path
       style="opacity:1;fill:#84ceeb;fill-opacity:0;stroke-width:2.02030516"
       d="m 44.943474,952.39099 c -13.85479,-6.03239 -19.22772,-22.65069 -11.53417,-35.67483 4.984711,-8.43845 14.025782,-11.96111 30.698669,-11.96111 h 14.341885 v -64.64977 -64.64976 h -5.151091 c -12.486748,0 -23.13318,-11.1575 -23.13318,-24.24366 0,-13.09081 10.646638,-24.24366 23.14328,-24.24366 h 5.161188 L 77.954879,532.83098 77.439706,338.69378 69.435835,335.94227 C 55.21917,331.05497 48.712753,316.49924 54.923252,303.4757 c 3.39045,-7.10985 13.828645,-14.893 19.991072,-14.90615 3.204275,-0.007 3.535534,-2.75228 3.535534,-29.30198 0,-23.41168 -0.554048,-29.29442 -2.759015,-29.29442 -1.517459,0 -9.404662,-3.32468 -17.527119,-7.38818 C 15.062548,201.02233 -7.2914219,152.12194 4.7752087,105.79502 13.646594,71.73547 41.57093,43.384371 76.291164,33.186096 c 9.883801,-2.903141 50.917576,-3.223153 413.290776,-3.223153 441.12374,0 409.74798,-0.839428 434.35321,11.620694 12.63806,6.399921 34.68703,28.540662 41.89426,42.068639 26.69874,50.113474 6.21541,113.396084 -44.99686,139.016544 -8.03027,4.01738 -15.84204,7.30433 -17.35951,7.30433 -2.20496,0 -2.75901,5.88274 -2.75901,29.29442 0,26.5497 0.33125,29.29513 3.53553,29.30198 6.16244,0.0141 16.60063,7.7963 19.99108,14.90615 6.2105,13.02354 -0.29593,27.57927 -14.51259,32.46657 l -8.00387,2.75151 -0.51518,194.1372 -0.51517,194.13722 h 5.16119 c 12.49664,0 23.14328,11.15285 23.14328,24.24366 0,13.08616 -10.64642,24.24366 -23.13318,24.24366 h -5.15109 v 64.64976 64.64977 h 14.34188 c 16.67289,0 25.71396,3.52266 30.69868,11.96111 7.81208,13.2248 2.25498,29.81318 -11.97984,35.76088 -9.81271,4.1 -879.410365,4.01582 -888.831276,-0.0861 z M 310.78494,840.10528 v -64.64976 h -90.91373 -90.91372 v 64.64976 64.64977 h 90.91372 90.91373 z M 619.45439,712.32099 618.88147,519.88693 613.2604,503.29111 c -11.18053,-33.00962 -35.0739,-60.70067 -65.08961,-75.43512 -21.26535,-10.43898 -36.27712,-14.03508 -58.58885,-14.03508 -22.31172,0 -37.3235,3.5961 -58.58884,14.03508 -30.01572,14.73445 -53.90908,42.4255 -65.08961,75.43512 l -5.62107,16.59582 -0.57292,192.43406 -0.57292,192.43406 H 489.58194 620.02731 Z M 850.2064,840.10528 v -64.64976 h -90.91373 -90.91373 v 64.64976 64.64977 h 90.91373 90.91373 z M 310.78494,624.85762 c 0,-112.05311 0.5452,-118.60575 12.32789,-148.16538 11.6759,-29.29176 36.58837,-60.82486 63.43355,-80.29139 14.31364,-10.3794 39.53515,-21.92863 59.599,-27.29111 24.28961,-6.49187 62.53546,-6.50621 86.73811,-0.0325 32.94533,8.81219 55.7483,21.70852 80.66884,45.62271 22.93497,22.0088 39.74075,49.46823 49.14228,80.29483 4.38609,14.38148 4.52979,17.7947 5.19526,123.38205 l 0.6844,108.5914 h 90.81606 90.81607 V 480.49098 234.01376 H 489.58194 128.95749 V 480.49098 726.9682 h 90.91372 90.91373 z M 895.8899,180.52119 c 12.82019,-3.80719 25.40876,-14.57753 31.32643,-26.80182 5.5456,-11.45568 6.18979,-31.88564 1.35874,-43.09115 -4.35305,-10.09681 -14.8748,-21.516108 -24.6393,-26.74114 l -8.2725,-4.426662 H 491.60225 87.541231 l -8.369223,4.476004 C 63.165897,92.496765 50.165587,113.58029 50.165587,130.9782 c 0,20.40604 16.642978,43.3967 35.638315,49.23086 14.781678,4.53999 794.837148,4.84055 810.085998,0.31213 z"
       id="path4649"
       inkscape:connector-curvature="0"
       transform="matrix(0.26458333,0,0,0.26458333,0,37)" />
    <path
       style="opacity:1;fill:#84ceeb;fill-opacity:0;stroke-width:2.02030516"
       d="m 44.943474,952.39099 c -13.85479,-6.03239 -19.22772,-22.65069 -11.53417,-35.67483 4.984711,-8.43845 14.025782,-11.96111 30.698669,-11.96111 h 14.341885 v -64.64977 -64.64976 h -5.151091 c -12.486748,0 -23.13318,-11.1575 -23.13318,-24.24366 0,-13.09081 10.646638,-24.24366 23.14328,-24.24366 h 5.161188 L 77.954879,532.83098 77.439706,338.69378 69.435835,335.94227 C 55.21917,331.05497 48.712753,316.49924 54.923252,303.4757 c 3.39045,-7.10985 13.828645,-14.893 19.991072,-14.90615 3.204275,-0.007 3.535534,-2.75228 3.535534,-29.30198 0,-23.41168 -0.554048,-29.29442 -2.759015,-29.29442 -1.517459,0 -9.404662,-3.32468 -17.527119,-7.38818 C 15.062548,201.02233 -7.2914219,152.12194 4.7752087,105.79502 13.646594,71.73547 41.57093,43.384371 76.291164,33.186096 c 9.883801,-2.903141 50.917576,-3.223153 413.290776,-3.223153 441.12374,0 409.74798,-0.839428 434.35321,11.620694 12.63806,6.399921 34.68703,28.540662 41.89426,42.068639 26.69874,50.113474 6.21541,113.396084 -44.99686,139.016544 -8.03027,4.01738 -15.84204,7.30433 -17.35951,7.30433 -2.20496,0 -2.75901,5.88274 -2.75901,29.29442 0,26.5497 0.33125,29.29513 3.53553,29.30198 6.16244,0.0141 16.60063,7.7963 19.99108,14.90615 6.2105,13.02354 -0.29593,27.57927 -14.51259,32.46657 l -8.00387,2.75151 -0.51518,194.1372 -0.51517,194.13722 h 5.16119 c 12.49664,0 23.14328,11.15285 23.14328,24.24366 0,13.08616 -10.64642,24.24366 -23.13318,24.24366 h -5.15109 v 64.64976 64.64977 h 14.34188 c 16.67289,0 25.71396,3.52266 30.69868,11.96111 7.81208,13.2248 2.25498,29.81318 -11.97984,35.76088 -9.81271,4.1 -879.410365,4.01582 -888.831276,-0.0861 z M 310.78494,840.10528 v -64.64976 h -90.91373 -90.91372 v 64.64976 64.64977 h 90.91372 90.91373 z M 619.45439,712.32099 618.88147,519.88693 613.2604,503.29111 c -11.18053,-33.00962 -35.0739,-60.70067 -65.08961,-75.43512 -21.26535,-10.43898 -36.27712,-14.03508 -58.58885,-14.03508 -22.31172,0 -37.3235,3.5961 -58.58884,14.03508 -30.01572,14.73445 -53.90908,42.4255 -65.08961,75.43512 l -5.62107,16.59582 -0.57292,192.43406 -0.57292,192.43406 H 489.58194 620.02731 Z M 850.2064,840.10528 v -64.64976 h -90.91373 -90.91373 v 64.64976 64.64977 h 90.91373 90.91373 z M 310.78494,624.85762 c 0,-112.05311 0.5452,-118.60575 12.32789,-148.16538 11.6759,-29.29176 36.58837,-60.82486 63.43355,-80.29139 14.31364,-10.3794 39.53515,-21.92863 59.599,-27.29111 24.28961,-6.49187 62.53546,-6.50621 86.73811,-0.0325 32.94533,8.81219 55.7483,21.70852 80.66884,45.62271 22.93497,22.0088 39.74075,49.46823 49.14228,80.29483 4.38609,14.38148 4.52979,17.7947 5.19526,123.38205 l 0.6844,108.5914 h 90.81606 90.81607 V 480.49098 234.01376 H 489.58194 128.95749 V 480.49098 726.9682 h 90.91372 90.91373 z M 895.8899,180.52119 c 12.82019,-3.80719 25.40876,-14.57753 31.32643,-26.80182 5.5456,-11.45568 6.18979,-31.88564 1.35874,-43.09115 -4.35305,-10.09681 -14.8748,-21.516108 -24.6393,-26.74114 l -8.2725,-4.426662 H 491.60225 87.541231 l -8.369223,4.476004 C 63.165897,92.496765 50.165587,113.58029 50.165587,130.9782 c 0,20.40604 16.642978,43.3967 35.638315,49.23086 14.781678,4.53999 794.837148,4.84055 810.085998,0.31213 z"
       id="path4651"
       inkscape:connector-curvature="0"
       transform="matrix(0.26458333,0,0,0.26458333,0,37)" />
    <path
       style="opacity:1;fill:#84ceeb;fill-opacity:0;stroke-width:2.02030516"
       d="m 44.943474,952.39099 c -13.85479,-6.03239 -19.22772,-22.65069 -11.53417,-35.67483 4.984711,-8.43845 14.025782,-11.96111 30.698669,-11.96111 h 14.341885 v -64.64977 -64.64976 h -5.151091 c -12.486748,0 -23.13318,-11.1575 -23.13318,-24.24366 0,-13.09081 10.646638,-24.24366 23.14328,-24.24366 h 5.161188 L 77.954879,532.83098 77.439706,338.69378 69.435835,335.94227 C 55.21917,331.05497 48.712753,316.49924 54.923252,303.4757 c 3.39045,-7.10985 13.828645,-14.893 19.991072,-14.90615 3.204275,-0.007 3.535534,-2.75228 3.535534,-29.30198 0,-23.41168 -0.554048,-29.29442 -2.759015,-29.29442 -1.517459,0 -9.404662,-3.32468 -17.527119,-7.38818 C 15.062548,201.02233 -7.2914219,152.12194 4.7752087,105.79502 13.646594,71.73547 41.57093,43.384371 76.291164,33.186096 c 9.883801,-2.903141 50.917576,-3.223153 413.290776,-3.223153 441.12374,0 409.74798,-0.839428 434.35321,11.620694 12.63806,6.399921 34.68703,28.540662 41.89426,42.068639 26.69874,50.113474 6.21541,113.396084 -44.99686,139.016544 -8.03027,4.01738 -15.84204,7.30433 -17.35951,7.30433 -2.20496,0 -2.75901,5.88274 -2.75901,29.29442 0,26.5497 0.33125,29.29513 3.53553,29.30198 6.16244,0.0141 16.60063,7.7963 19.99108,14.90615 6.2105,13.02354 -0.29593,27.57927 -14.51259,32.46657 l -8.00387,2.75151 -0.51518,194.1372 -0.51517,194.13722 h 5.16119 c 12.49664,0 23.14328,11.15285 23.14328,24.24366 0,13.08616 -10.64642,24.24366 -23.13318,24.24366 h -5.15109 v 64.64976 64.64977 h 14.34188 c 16.67289,0 25.71396,3.52266 30.69868,11.96111 7.81208,13.2248 2.25498,29.81318 -11.97984,35.76088 -9.81271,4.1 -879.410365,4.01582 -888.831276,-0.0861 z M 310.78494,840.10528 v -64.64976 h -90.91373 -90.91372 v 64.64976 64.64977 h 90.91372 90.91373 z M 619.45439,712.32099 618.88147,519.88693 613.2604,503.29111 c -11.18053,-33.00962 -35.0739,-60.70067 -65.08961,-75.43512 -21.26535,-10.43898 -36.27712,-14.03508 -58.58885,-14.03508 -22.31172,0 -37.3235,3.5961 -58.58884,14.03508 -30.01572,14.73445 -53.90908,42.4255 -65.08961,75.43512 l -5.62107,16.59582 -0.57292,192.43406 -0.57292,192.43406 H 489.58194 620.02731 Z M 850.2064,840.10528 v -64.64976 h -90.91373 -90.91373 v 64.64976 64.64977 h 90.91373 90.91373 z M 310.78494,624.85762 c 0,-112.05311 0.5452,-118.60575 12.32789,-148.16538 11.6759,-29.29176 36.58837,-60.82486 63.43355,-80.29139 14.31364,-10.3794 39.53515,-21.92863 59.599,-27.29111 24.28961,-6.49187 62.53546,-6.50621 86.73811,-0.0325 32.94533,8.81219 55.7483,21.70852 80.66884,45.62271 22.93497,22.0088 39.74075,49.46823 49.14228,80.29483 4.38609,14.38148 4.52979,17.7947 5.19526,123.38205 l 0.6844,108.5914 h 90.81606 90.81607 V 480.49098 234.01376 H 489.58194 128.95749 V 480.49098 726.9682 h 90.91372 90.91373 z M 895.8899,180.52119 c 12.82019,-3.80719 25.40876,-14.57753 31.32643,-26.80182 5.5456,-11.45568 6.18979,-31.88564 1.35874,-43.09115 -4.35305,-10.09681 -14.8748,-21.516108 -24.6393,-26.74114 l -8.2725,-4.426662 H 491.60225 87.541231 l -8.369223,4.476004 C 63.165897,92.496765 50.165587,113.58029 50.165587,130.9782 c 0,20.40604 16.642978,43.3967 35.638315,49.23086 14.781678,4.53999 794.837148,4.84055 810.085998,0.31213 z"
       id="path4653"
       inkscape:connector-curvature="0"
       transform="matrix(0.26458333,0,0,0.26458333,0,37)" />
    <path
       style="opacity:1;fill:#112d32;fill-opacity:1;stroke-width:2.02030516"
       d="m 44.943474,952.39099 c -13.85479,-6.03239 -19.22772,-22.65069 -11.53417,-35.67483 4.984711,-8.43845 14.025782,-11.96111 30.698669,-11.96111 h 14.341885 v -64.64977 -64.64976 h -5.151091 c -12.486748,0 -23.13318,-11.1575 -23.13318,-24.24366 0,-13.09081 10.646638,-24.24366 23.14328,-24.24366 h 5.161188 L 77.954879,532.83098 77.439706,338.69378 69.435835,335.94227 C 55.21917,331.05497 48.712753,316.49924 54.923252,303.4757 c 3.39045,-7.10985 13.828645,-14.893 19.991072,-14.90615 3.204275,-0.007 3.535534,-2.75228 3.535534,-29.30198 0,-23.41168 -0.554048,-29.29442 -2.759015,-29.29442 -1.517459,0 -9.404662,-3.32468 -17.527119,-7.38818 C 15.062548,201.02233 -7.2914219,152.12194 4.7752087,105.79502 13.646594,71.73547 41.57093,43.384371 76.291164,33.186096 c 9.883801,-2.903141 50.917576,-3.223153 413.290776,-3.223153 441.12374,0 409.74798,-0.839428 434.35321,11.620694 12.63806,6.399921 34.68703,28.540662 41.89426,42.068639 26.69874,50.113474 6.21541,113.396084 -44.99686,139.016544 -8.03027,4.01738 -15.84204,7.30433 -17.35951,7.30433 -2.20496,0 -2.75901,5.88274 -2.75901,29.29442 0,26.5497 0.33125,29.29513 3.53553,29.30198 6.16244,0.0141 16.60063,7.7963 19.99108,14.90615 6.2105,13.02354 -0.29593,27.57927 -14.51259,32.46657 l -8.00387,2.75151 -0.51518,194.1372 -0.51517,194.13722 h 5.16119 c 12.49664,0 23.14328,11.15285 23.14328,24.24366 0,13.08616 -10.64642,24.24366 -23.13318,24.24366 h -5.15109 v 64.64976 64.64977 h 14.34188 c 16.67289,0 25.71396,3.52266 30.69868,11.96111 7.81208,13.2248 2.25498,29.81318 -11.97984,35.76088 -9.81271,4.1 -879.410365,4.01582 -888.831276,-0.0861 z M 310.78494,840.10528 v -64.64976 h -90.91373 -90.91372 v 64.64976 64.64977 h 90.91372 90.91373 z M 619.45439,712.32099 618.88147,519.88693 613.2604,503.29111 c -11.18053,-33.00962 -35.0739,-60.70067 -65.08961,-75.43512 -21.26535,-10.43898 -36.27712,-14.03508 -58.58885,-14.03508 -22.31172,0 -37.3235,3.5961 -58.58884,14.03508 -30.01572,14.73445 -53.90908,42.4255 -65.08961,75.43512 l -5.62107,16.59582 -0.57292,192.43406 -0.57292,192.43406 H 489.58194 620.02731 Z M 850.2064,840.10528 v -64.64976 h -90.91373 -90.91373 v 64.64976 64.64977 h 90.91373 90.91373 z M 310.78494,624.85762 c 0,-112.05311 0.5452,-118.60575 12.32789,-148.16538 11.6759,-29.29176 36.58837,-60.82486 63.43355,-80.29139 14.31364,-10.3794 39.53515,-21.92863 59.599,-27.29111 24.28961,-6.49187 62.53546,-6.50621 86.73811,-0.0325 32.94533,8.81219 55.7483,21.70852 80.66884,45.62271 22.93497,22.0088 39.74075,49.46823 49.14228,80.29483 4.38609,14.38148 4.52979,17.7947 5.19526,123.38205 l 0.6844,108.5914 h 90.81606 90.81607 V 480.49098 234.01376 H 489.58194 128.95749 V 480.49098 726.9682 h 90.91372 90.91373 z M 895.8899,180.52119 c 12.82019,-3.80719 25.40876,-14.57753 31.32643,-26.80182 5.5456,-11.45568 6.18979,-31.88564 1.35874,-43.09115 -4.35305,-10.09681 -14.8748,-21.516108 -24.6393,-26.74114 l -8.2725,-4.426662 H 491.60225 87.541231 l -8.369223,4.476004 C 63.165897,92.496765 50.165587,113.58029 50.165587,130.9782 c 0,20.40604 16.642978,43.3967 35.638315,49.23086 14.781678,4.53999 794.837148,4.84055 810.085998,0.31213 z"
       id="path4655"
       inkscape:connector-curvature="0"
       transform="matrix(0.26458333,0,0,0.26458333,0,37)"
       inkscape:export-xdpi="95.5"
       inkscape:export-ydpi="95.5" />
  </g>
</svg>
