<?xml version="1.0" standalone="no"?>
<!DOCTYPE svg PUBLIC "-//W3C//DTD SVG 20010904//EN"
 "http://www.w3.org/TR/2001/REC-SVG-20010904/DTD/svg10.dtd">
<svg version="1.0" xmlns="http://www.w3.org/2000/svg"
 width="260.000000pt" height="260.000000pt" viewBox="0 0 260.000000 260.000000"
 preserveAspectRatio="xMidYMid meet">
<metadata>
Created by potrace 1.11, written by Peter Selinger 2001-2013
</metadata>
<g transform="translate(0.000000,260.000000) scale(0.100000,-0.100000)"
fill="#000000" stroke="none">
<path d="M230 2571 c-5 -11 -10 -78 -10 -150 0 -123 1 -131 22 -145 20 -14
139 -16 1083 -16 944 0 1063 2 1083 16 21 14 22 22 22 148 0 116 -2 135 -18
149 -17 16 -107 17 -1095 17 -1054 0 -1077 0 -1087 -19z"/>
<path d="M340 1215 l0 -895 -38 0 c-21 0 -48 -7 -60 -16 -21 -14 -22 -22 -22
-147 0 -73 4 -138 8 -145 7 -9 86 -12 362 -10 l354 3 13 25 c10 19 13 140 13
516 0 297 4 513 10 547 37 195 189 348 347 348 113 0 237 -90 297 -217 53
-111 56 -153 56 -684 0 -350 3 -496 12 -515 l11 -25 352 0 c260 0 354 3 363
12 8 8 12 55 12 144 0 126 -1 134 -22 148 -12 9 -39 16 -60 16 l-38 0 0 895 0
895 -985 0 -985 0 0 -895z"/>
</g>
</svg>
