<?xml version="1.0" standalone="no"?>
<!DOCTYPE svg PUBLIC "-//W3C//DTD SVG 20010904//EN"
 "http://www.w3.org/TR/2001/REC-SVG-20010904/DTD/svg10.dtd">
<svg version="1.0" xmlns="http://www.w3.org/2000/svg"
 width="971.000000pt" height="971.000000pt" viewBox="0 0 971.000000 971.000000"
 preserveAspectRatio="xMidYMid meet">
<metadata>
Created by potrace 1.11, written by Peter Selinger 2001-2013
</metadata>
<g transform="translate(0.000000,971.000000) scale(0.100000,-0.100000)"
fill="#000000" stroke="none">
<path d="M750 9440 c-104 -28 -262 -99 -315 -142 -5 -4 -35 -28 -65 -52 -155
-123 -271 -293 -338 -498 -26 -80 -27 -91 -27 -298 0 -198 2 -221 23 -290 73
-231 219 -430 412 -558 90 -60 213 -120 283 -137 15 -4 27 -14 28 -24 0 -9 1
-132 1 -275 1 -276 1 -276 -50 -276 -23 0 -84 -29 -112 -52 -115 -97 -123
-273 -18 -377 39 -39 98 -71 130 -71 13 0 29 -4 36 -9 10 -6 13 -368 14 -1919
1 -1051 -1 -1914 -3 -1917 -3 -3 -27 -8 -54 -11 -82 -9 -148 -55 -200 -138
-26 -43 -30 -159 -6 -212 40 -89 134 -155 223 -157 27 -1 38 -5 39 -16 1 -21
1 -1189 0 -1223 l-1 -27 -128 1 c-144 1 -182 -5 -233 -37 -102 -65 -143 -178
-110 -298 19 -65 89 -138 155 -160 46 -16 359 -17 4416 -17 3814 0 4373 2
4416 15 173 51 234 271 113 409 -37 42 -86 72 -132 82 -12 2 -82 5 -154 5
-105 1 -133 5 -134 15 -1 18 -1 1220 0 1237 1 7 18 13 46 14 79 2 156 53 203
133 23 38 27 57 27 120 0 84 -16 127 -67 179 -42 43 -99 71 -156 78 -26 3 -49
7 -51 9 -7 7 -4 3825 3 3832 4 3 19 8 34 10 160 21 262 208 193 353 -39 82
-95 127 -184 150 -31 7 -47 17 -48 28 -1 22 -1 502 0 523 1 11 12 20 29 24 57
14 160 59 232 103 123 73 219 161 301 273 22 29 42 58 47 63 19 26 64 119 87
178 45 121 55 187 55 370 0 152 -3 183 -25 266 -93 346 -360 615 -709 716
l-88 25 -4037 -1 c-3836 -1 -4039 -2 -4101 -19z m2140 -479 c0 -3 -451 -7
-1003 -7 -551 -1 -986 1 -967 5 45 8 1970 10 1970 2z m100 2 c0 -5 -20 -9 -45
-10 -25 0 -45 2 -45 6 0 4 20 8 45 10 25 1 45 -2 45 -6z m100 -1 c0 -4 -20 -7
-45 -7 -25 0 -45 3 -45 8 0 4 20 7 45 7 25 0 45 -3 45 -8z m80 0 c0 -4 -16 -7
-35 -8 -19 0 -32 3 -29 8 6 10 64 11 64 0z m410 -1 c0 -3 -90 -6 -199 -6 -110
0 -198 2 -195 6 5 8 394 8 394 0z m360 1 c0 -4 -79 -7 -175 -7 -96 0 -175 3
-175 7 0 4 79 7 175 7 96 -1 175 -4 175 -7z m310 0 c0 -4 -68 -7 -150 -7 -83
0 -150 3 -150 7 0 4 68 7 150 7 83 1 150 -2 150 -7z m160 1 c0 -5 -24 -7 -52
-5 -95 5 -104 9 -25 11 42 0 77 -2 77 -6z m3570 -1 c0 -6 -2108 -6 -3155 1
-225 1 392 3 1373 5 980 1 1782 -2 1782 -6z m270 -1 c0 -3 -58 -6 -130 -6 -71
0 -130 3 -130 6 0 4 59 7 130 7 72 0 130 -3 130 -7z m630 -10 c128 -37 245
-132 309 -252 33 -60 62 -157 60 -199 -1 -14 -5 -4 -11 24 -32 168 -186 350
-338 401 -48 16 -180 24 -462 27 -98 1 -178 5 -178 9 0 13 572 4 620 -10z
m-8074 -34 c-118 -76 -197 -158 -237 -247 -46 -102 -58 -237 -30 -355 38 -158
182 -295 343 -325 29 -6 136 -14 238 -18 102 -4 1755 -7 3675 -7 3112 0 4027
4 4103 19 40 9 140 76 181 123 71 80 130 180 148 248 3 11 9 36 14 55 7 28 7
24 4 -22 -14 -159 -124 -312 -280 -389 l-83 -41 -173 -6 c-231 -8 -7274 -8
-7590 0 -226 6 -251 8 -300 29 -148 62 -260 187 -303 340 -16 55 -22 171 -12
219 3 14 8 39 12 55 10 50 71 157 117 207 44 46 160 129 181 127 6 0 3 -6 -8
-12z m7634 -1564 c2 -954 0 -4807 -3 -4810 -8 -7 -1447 -8 -1447 0 0 4 324 7
720 7 l720 0 -2 2433 -3 2432 -3570 0 -3570 0 0 -2430 0 -2430 130 -5 c72 -3
127 -7 123 -8 -7 -3 -108 -4 -223 -2 l-45 0 0 2445 0 2445 3585 0 3585 0 0
-77z m-3552 -1198 c-8 -9 -118 -12 -118 -3 0 4 28 8 62 8 34 0 59 -2 56 -5z
m56 -6 c3 -3 -6 -5 -19 -5 -14 0 -25 4 -25 8 0 8 36 6 44 -3z m-234 -6 c-19
-2 -80 -10 -134 -18 -54 -9 -101 -13 -103 -11 -2 2 29 9 69 16 40 6 80 13 88
14 8 2 38 3 65 3 34 0 39 -1 15 -4z m344 -1 c2 -4 -12 -6 -32 -4 -62 6 -69 10
-20 11 26 0 49 -3 52 -7z m130 -22 c8 -8 6 -9 -5 -5 -10 4 -39 10 -65 15 l-49
9 54 -4 c30 -2 59 -9 65 -15z m43 -6 c-3 -3 -12 -4 -19 -1 -8 3 -5 6 6 6 11 1
17 -2 13 -5z m73 -14 c20 -6 21 -8 5 -8 -11 0 -29 3 -40 8 -25 11 1 11 35 0z
m-890 -5 c0 -6 -73 -25 -78 -20 -2 2 11 8 29 14 41 11 49 12 49 6z m985 -26
c5 -5 -6 -4 -25 2 -45 15 -54 24 -15 15 17 -4 34 -12 40 -17z m-1105 -13 c0
-2 -9 -6 -20 -9 -11 -3 -18 -1 -14 4 5 9 34 13 34 5z m-90 -30 c0 -2 -7 -7
-16 -10 -8 -3 -12 -2 -9 4 6 10 25 14 25 6z m1371 -24 c-7 -2 -18 1 -23 6 -8
8 -4 9 13 5 13 -4 18 -8 10 -11z m-1426 -2 c-3 -5 -12 -10 -18 -10 -7 0 -6 4
3 10 19 12 23 12 15 0z m1470 -18 c-3 -3 -11 0 -18 7 -9 10 -8 11 6 5 10 -3
15 -9 12 -12z m64 -28 c14 -12 -19 -1 -35 12 -18 14 -18 14 6 3 14 -6 27 -13
29 -15z m-1633 1 c-11 -8 -25 -15 -30 -15 -6 1 0 7 14 15 32 19 40 18 16 0z
m1744 -58 c65 -39 166 -113 176 -128 3 -5 -32 18 -78 51 -46 33 -109 73 -140
90 -32 17 -58 33 -58 35 0 8 36 -9 100 -48z m-1911 -40 c-126 -82 -184 -130
-304 -252 -116 -117 -116 -118 -195 -232 -33 -47 -60 -83 -60 -78 0 12 109
165 164 230 57 67 162 172 208 207 16 13 37 30 46 38 24 23 216 149 227 150 6
0 -33 -28 -86 -63z m1228 -246 c230 -47 434 -151 622 -316 59 -52 184 -209
230 -289 79 -139 138 -301 167 -461 4 -22 9 -882 10 -1912 l3 -1871 -1283 0
-1284 0 2 1872 c1 1029 5 1880 8 1891 5 18 8 36 25 125 10 59 67 210 110 293
190 369 577 639 975 683 29 3 54 7 56 8 11 11 274 -6 359 -23z m1134 -108 c13
-16 12 -17 -3 -4 -10 7 -18 15 -18 17 0 8 8 3 21 -13z m82 -103 c45 -59 50
-67 109 -174 21 -38 37 -71 35 -73 -2 -2 -16 21 -32 49 -40 75 -132 218 -164
253 -14 16 -18 23 -8 15 11 -8 38 -39 60 -70z m-3033 -170 c-6 -11 -13 -20
-16 -20 -2 0 0 9 6 20 6 11 13 20 16 20 2 0 0 -9 -6 -20z m-20 -38 c0 -5 -7
-17 -15 -28 -14 -18 -14 -17 -4 9 12 27 19 34 19 19z m-39 -79 c-12 -20 -14
-14 -5 12 4 9 9 14 11 11 3 -2 0 -13 -6 -23z m3253 11 c3 -8 2 -12 -4 -9 -6 3
-10 10 -10 16 0 14 7 11 14 -7z m26 -59 c0 -5 -5 -3 -10 5 -5 8 -10 20 -10 25
0 6 5 3 10 -5 5 -8 10 -19 10 -25z m-3316 -35 c-31 -77 -83 -242 -90 -292 -4
-21 -10 -41 -14 -43 -22 -13 47 230 96 343 31 72 37 66 8 -8z m3359 -70 c37
-103 67 -220 66 -250 0 -14 -7 6 -16 45 -12 58 -59 208 -88 280 -5 13 -5 17 2
10 6 -5 22 -44 36 -85z m-3466 -302 c-3 -8 -6 -5 -6 6 -1 11 2 17 5 13 3 -3 4
-12 1 -19z m-30 -710 c-3 -8 -6 -5 -6 6 -1 11 2 17 5 13 3 -3 4 -12 1 -19z
m3600 -30 c-3 -8 -6 -5 -6 6 -1 11 2 17 5 13 3 -3 4 -12 1 -19z m-3600 -10
c-3 -8 -6 -5 -6 6 -1 11 2 17 5 13 3 -3 4 -12 1 -19z m3600 -40 c-3 -7 -5 -2
-5 12 0 14 2 19 5 13 2 -7 2 -19 0 -25z m-3600 0 c-3 -8 -6 -5 -6 6 -1 11 2
17 5 13 3 -3 4 -12 1 -19z m3 -673 c0 -356 -1 -650 -4 -652 -7 -8 -1186 -8
-1186 0 0 4 266 7 590 7 l590 0 0 652 c0 358 2 649 5 646 3 -2 5 -296 5 -653z
m3602 -15 l3 -625 160 -5 c233 -8 193 -12 -100 -10 l-75 0 1 658 c1 361 4 646
5 632 2 -14 5 -306 6 -650z m-4804 -636 c-9 -8 -308 -10 -308 -1 0 4 70 7 157
7 86 0 154 -3 151 -6z m1196 -525 c5 -5 8 -510 6 -1131 l0 -128 -895 0 -895 0
0 633 0 633 889 -1 c489 0 892 -3 895 -6z m5381 0 c5 -6 6 -288 5 -1111 l0
-148 -895 0 -895 0 0 633 0 633 889 -1 c489 0 892 -3 896 -6z"/>
<path d="M1288 2006 c-1 -1 -2 -277 -3 -613 l-2 -613 884 0 883 0 -2 613 -3
612 -877 1 c-483 0 -879 0 -880 0z"/>
<path d="M6669 2005 c-1 0 -2 -276 -3 -612 l-1 -613 882 0 883 0 -2 613 -3
612 -877 0 c-483 1 -879 1 -879 0z"/>
</g>
</svg>
